<?xml version="1.0" standalone="no"?>
<!DOCTYPE svg PUBLIC "-//W3C//DTD SVG 1.1//EN" "http://www.w3.org/Graphics/SVG/1.1/DTD/svg11.dtd" >
<!--
2013-9-30: Created.
-->
<svg>
<metadata>
Created by iconfont
</metadata>
<defs>

<font id="iconfont" horiz-adv-x="1024" >
  <font-face
    font-family="iconfont"
    font-weight="500"
    font-stretch="normal"
    units-per-em="1024"
    ascent="896"
    descent="-128"
  />
    <missing-glyph />
    
    <glyph glyph-name="x" unicode="x" horiz-adv-x="1001"
d="M281 543q-27 -1 -53 -1h-83q-18 0 -36.5 -6t-32.5 -18.5t-23 -32t-9 -45.5v-76h912v41q0 16 -0.5 30t-0.5 18q0 13 -5 29t-17 29.5t-31.5 22.5t-49.5 9h-133v-97h-438v97zM955 310v-52q0 -23 0.5 -52t0.5 -58t-10.5 -47.5t-26 -30t-33 -16t-31.5 -4.5q-14 -1 -29.5 -0.5
t-29.5 0.5h-32l-45 128h-439l-44 -128h-29h-34q-20 0 -45 1q-25 0 -41 9.5t-25.5 23t-13.5 29.5t-4 30v167h911zM163 247q-12 0 -21 -8.5t-9 -21.5t9 -21.5t21 -8.5q13 0 22 8.5t9 21.5t-9 21.5t-22 8.5zM316 123q-8 -26 -14 -48q-5 -19 -10.5 -37t-7.5 -25t-3 -15t1 -14.5
t9.5 -10.5t21.5 -4h37h67h81h80h64h36q23 0 34 12t2 38q-5 13 -9.5 30.5t-9.5 34.5q-5 19 -11 39h-368zM336 498v228q0 11 2.5 23t10 21.5t20.5 15.5t34 6h188q31 0 51.5 -14.5t20.5 -52.5v-227h-327z" />
    

    
    <glyph glyph-name="shanchu" unicode="&#58880;" d="M710.2592 446.9312h-17.056v-428.32640000000004h-56.281600000000005V446.9312H543.1168v-428.32640000000004h-56.281600000000005V446.9312H393.0368v-428.32640000000004h-56.281600000000005V446.9312h-35.8144c-42.3808 0-76.7488 0.6144-76.7488 0v-447.5264c0-41.2032 34.368-74.5984 76.7488-74.5984h409.312c42.3936 0 76.7424 33.3952 76.7424 74.5984V446.9312C787.0016 450.08 752.6528 446.9312 710.2592 446.9312zM823.8656 581.4016H655.6800000000001v45.772800000000004c0 26.528-47.4112 48.0256-75.0464 48.0256h-150.08c-27.6224 0-75.04-21.4976-75.04-48.0256v-45.772800000000004H187.36c-21.1008 0-38.2016-16.8-38.2016-37.5232 0-20.7168 17.0944-37.5168 38.2016-37.5168h636.5056c21.0816 0 38.176 16.8 38.176 37.5168C862.0352 564.6016 844.9408 581.4016 823.8656 581.4016zM580.64 581.4016h-150.08V600.16h150.08V581.4016z"  horiz-adv-x="1024" />

    
    <glyph glyph-name="daoru" unicode="&#58945;" d="M734.569364 436.703202c1.444963 1.338482 1.999616 3.474118 1.237224 5.417372-0.761369 1.948371-2.62181 3.134381-4.592773 3.134381L593.811321 445.254955l0.295747 224.813783c0.005117 3.792365-1.43473 7.586777-4.32875 10.480681-2.889926 2.894927-6.683467 4.344949-10.477007 4.344949L444.723249 684.894368c-3.788423 0-7.581964-1.450022-10.477007-4.344949-2.888903-2.893904-4.329773-6.688316-4.32568-10.480681l0.274256-224.813783L292.786185 445.254955c-1.966869 0-3.826287-1.184986-4.593796-3.134381-0.762392-1.943255-0.206716-4.07889 1.239271-5.417372L501.930285 239.650638c2.645347-2.447744 6.181004-3.949954 10.066645-3.949954 3.888711 0 7.427438 1.503234 10.067669 3.949954L734.569364 436.703202 734.569364 436.703202zM946.221682 186.539105 813.000576 289.46406c-7.54717 5.888092-21.554717 10.705808-31.126063 10.705808l-77.131564 0 127.577358-127.750314L704.317237 172.506536l-64.341797-92.866899L383.45865 79.639637 319.795331 172.506536l-126.723889-0.255826 127.577358 127.919159-78.572434 0c-9.57237 0-23.579917-4.817716-31.127087-10.705808L77.727151 186.539105c-7.54717-5.889115-11.288519-18.151369-8.314679-27.25059l53.146402-162.622473c2.973841-9.099221 13.239015-16.543758 22.811385-16.543758l734.23473 0c9.57237 0 19.801727 7.455794 22.73361 16.568318l52.278606 162.572331C957.546019 168.37648 953.768852 180.64999 946.221682 186.539105z"  horiz-adv-x="1024" />

    
    <glyph glyph-name="daochu" unicode="&#58947;" d="M289.429613 483.890826c-1.444963-1.338482-1.999616-3.474118-1.237224-5.417372 0.761369-1.948371 2.62181-3.134381 4.592773-3.134381l137.402494 0-0.295747-224.813783c-0.005117-3.791342 1.43473-7.585754 4.32875-10.479658 2.889926-2.894927 6.683467-4.344949 10.477007-4.344949l134.578062 0c3.788423 0 7.581964 1.450022 10.475983 4.344949 2.888903 2.893904 4.329773 6.688316 4.32568 10.479658l-0.274256 224.813783 137.407611 0c1.967893 0 3.826287 1.184986 4.593796 3.134381 0.762392 1.943255 0.206716 4.07889-1.239271 5.417372L522.067669 680.94339c-2.645347 2.447744-6.181004 3.949954-10.066645 3.949954-3.888711 0-7.427438-1.503234-10.067669-3.949954L289.429613 483.890826 289.429613 483.890826zM945.113399 186.283279 811.892293 289.208234c-7.54717 5.888092-21.554717 10.705808-31.126063 10.705808l-77.131564 0 128.392965-127.934509L704.013303 171.979534l-65.146146-92.5947L382.350368 79.384834l-62.363671 92.611072L191.962136 171.995907 319.539495 299.914042l-78.572434 0c-9.57237 0-23.579917-4.817716-31.127087-10.705808L76.618868 186.283279c-7.54717-5.889115-11.288519-18.151369-8.314679-27.25059l53.146402-162.622473c2.973841-9.099221 13.239015-16.543758 22.811385-16.543758l734.23473 0c9.57237 0 19.801727 7.455794 22.73361 16.568318l52.278606 162.572331C956.437736 168.120654 952.660569 180.394164 945.113399 186.283279z"  horiz-adv-x="1024" />

    
    <glyph glyph-name="shuju" unicode="&#58937;" d="M420.096 805.76l180.032 0 0-663.552-180.032 0 0 663.552ZM180.224 498.368l179.968 0 0-356.16-179.968 0 0 356.16ZM660.032 617.344l180.032 0 0-475.2-180.032 0 0 475.2ZM64 79.36l896 0 0-117.12-896 0 0 117.12ZM485.76 736.384l114.368 0 0-594.24-114.368 0 0 594.24ZM245.824 430.848l114.368 0 0-288.704-114.368 0 0 288.704ZM725.696 554.56l114.368 0 0-412.352-114.368 0 0 412.352ZM123.072 20.352l836.928 0 0-58.112-836.928 0 0 58.112Z"  horiz-adv-x="1024" />

    
    <glyph glyph-name="tupian" unicode="&#59040;" d="M975.36 714.4 48.64 714.4C21.76 714.4 0 692.641 0 665.76l0-731.52C0-92.64 21.76-114.4 48.64-114.4l926.72 0c26.88 0 48.64 21.761 48.64 48.641L1024 665.76C1024 692.641 1002.24 714.4 975.36 714.4zM926.08 147.36 746.24 327.2c-21.76 21.76-57.601 21.76-79.36 0L455.68 116l-90.239 90.88c-19.841 19.84-52.48 19.84-72.96 0l-192-192c-1.92 5.12-3.2 10.88-3.2 17.28L97.281 568.48c0 26.88 21.76 48.64 48.64 48.64L877.44 617.12c26.88 0 48.64-21.76 48.64-48.64L926.08 147.36zM316.8 519.2c-53.76 0-97.28-43.52-97.28-97.28 0-53.76 43.52-97.28 97.28-97.28s97.28 43.521 97.28 97.28C414.08 475.681 370.56 519.2 316.8 519.2z"  horiz-adv-x="1024" />

    
    <glyph glyph-name="shuaxin" unicode="&#58967;" d="M915.372465 509.939317 873.426121 509.939317l-23.104207 0L733.604632 509.939317c-23.158443 0-41.946344 18.788925-41.946344 41.946344s18.787902 41.946344 41.946344 41.946344l72.231091 0c-65.676815 92.904946-173.466774 153.803945-295.948339 153.803945-200.774723 0-363.535667-162.760944-363.535667-363.53669 0-23.157419-18.787902-41.945321-41.946344-41.945321-23.157419 0-41.946344 18.786878-41.946344 41.945321l0 0c0 247.119237 200.312188 447.430402 447.429379 447.430402 150.063761 0 282.486746-74.088392 363.538737-187.502441l0 75.645864c0 23.157419 18.787902 41.946344 41.946344 41.946344s41.946344-18.788925 41.946344-41.946344l0-167.786401C957.319833 528.728242 938.530908 509.939317 915.372465 509.939317zM104.405373 258.261251l181.767833 0c23.158443 0 41.946344-18.788925 41.946344-41.947368s-18.787902-41.945321-41.946344-41.945321l-72.804143 0c65.733097-93.01444 173.930331-153.804968 296.519344-153.804968 200.777793 0 363.538737 162.760944 363.538737 363.535667 0 23.158443 18.787902 41.947368 41.946344 41.947368s41.946344-18.788925 41.946344-41.947368l0 0c0-247.088538-200.337771-447.429379-447.431425-447.429379-150.253072 0-282.592147 74.389244-363.535667 188.131775l0-76.273151c0-23.158443-18.787902-41.947368-41.946344-41.947368-23.157419 0-41.946344 18.788925-41.946344 41.947368L62.460052 216.313883C62.459029 239.472326 81.246931 258.261251 104.405373 258.261251z"  horiz-adv-x="1024" />

    
    <glyph glyph-name="gengduo" unicode="&#58981;" d="M559.392 384c0-31.44 25.416-56.928 56.768-56.928s56.768 25.488 56.768 56.928c0 31.44-25.416 56.928-56.768 56.928-31.352 0-56.768-25.488-56.768-56.928zM351.072 384c0-31.44 25.416-56.928 56.768-56.928s56.768 25.488 56.768 56.928c0 31.44-25.416 56.928-56.768 56.928-31.352 0-56.768-25.488-56.768-56.928zM142.752 384c0-31.44 25.416-56.928 56.768-56.928s56.768 25.488 56.768 56.928c0 31.44-25.416 56.928-56.768 56.928-31.352 0-56.768-25.488-56.768-56.928zM512 896c-282.784 0-512-229.216-512-512s229.216-512 512-512 512 229.216 512 512-229.216 512-512 512zM512-102.016c-268.416 0-486.016 217.6-486.016 486.016s217.6 486.016 486.016 486.016c268.416 0 485.984-217.6 485.984-486.016 0.032-268.416-217.568-486.016-485.984-486.016zM767.712 384c0-31.44 25.416-56.928 56.768-56.928s56.768 25.488 56.768 56.928c0 31.44-25.416 56.928-56.768 56.928-31.352 0-56.768-25.488-56.768-56.928z"  horiz-adv-x="1024" />

    
    <glyph glyph-name="wenhao" unicode="&#59182;" d="M463.99957 111.647789c0-26.509985 21.490445-48.00043 48.00043-48.00043s48.00043 21.490445 48.00043 48.00043c0 26.509985-21.490445 48.00043-48.00043 48.00043S463.99957 138.157774 463.99957 111.647789zM512-64c-247.039484 0-448 200.960516-448 448S264.960516 832 512 832 960 631.039484 960 384 759.039484-64 512-64zM512 767.712727c-211.584464 0-383.712727-172.128262-383.712727-383.712727 0-211.551781 172.128262-383.712727 383.712727-383.712727 211.551781 0 383.712727 172.159226 383.712727 383.712727C895.712727 595.584464 723.551781 767.712727 512 767.712727zM512 222.304744c-17.664722 0-32.00086 14.336138-32.00086 31.99914l0 54.112297c0 52.352533 39.999785 92.352318 75.32751 127.647359 25.887273 25.919957 52.67249 52.67249 52.67249 74.016718 0 53.343368-43.07206 96.735385-95.99914 96.735385-53.823303 0-95.99914-41.535923-95.99914-94.559333 0-17.664722-14.336138-31.99914-32.00086-31.99914s-32.00086 14.336138-32.00086 31.99914c0 87.423948 71.775299 158.559333 160.00086 158.559333s160.00086-72.095256 160.00086-160.735385c0-47.904099-36.32028-84.191695-71.424378-119.295794-27.839699-27.776052-56.575622-56.511974-56.575622-82.3356l0-54.112297C544.00086 236.671845 529.664722 222.304744 512 222.304744z"  horiz-adv-x="1024" />

    
    <glyph glyph-name="pageprev" unicode="&#59490;" d="M71.582 384c0-33.524 18.627-62.757 46.373-78.702h-0.049l691.054-395.63c0.268-0.146 0.488-0.219 0.683-0.439l0.439-0.146c14.068-8.070 30.476-12.702 47.957-12.702 52.175 0 94.354 40.936 94.354 91.404v0 792.43c0 50.493-42.179 91.404-94.354 91.404-17.506 0-33.914-4.632-47.957-12.727l-0 0.049-0.439-0.244c-0.219-0.122-0.439-0.268-0.683-0.39l-691.029-395.581c-27.721-15.921-46.348-45.202-46.348-78.726z"  horiz-adv-x="1024" />

    
    <glyph glyph-name="pagenext" unicode="&#59491;" d="M960.016 383.968c0-34.064-18.96-63.856-47.2-80.016l0 0L209.968-98.464c-0.256-0.144-0.496-0.288-0.752-0.432l-0.384-0.208 0 0C194.512-107.264 177.856-112 160.016-112 106.976-112 64-70.368 64-19.024l0 0L64 786.992l0 0C64 838.336 106.976 880 160.016 880c17.84 0 34.496-4.768 48.8-12.96l0 0 0.384-0.208c0.256-0.144 0.496-0.288 0.752-0.432l702.848-402.368 0 0C941.056 447.872 960.016 418.048 960.016 383.968z"  horiz-adv-x="1024" />

    
    <glyph glyph-name="tishi" unicode="&#58963;" d="M508.8 851.2c-256 0-464-208-464-464s208-464 464-464 464 208 464 464S764.8 851.2 508.8 851.2zM508.8-28.8c-230.4 0-416 185.6-416 416s185.6 416 416 416 416-185.6 416-416S739.2-28.8 508.8-28.8zM521.6 243.2c12.8 0 22.4 9.6 22.4 22.4l0 428.8c0 12.8-9.6 22.4-22.4 22.4-12.8 0-22.4-9.6-22.4-22.4l0-428.8C496 256 508.8 243.2 521.6 243.2zM521.6 147.2m-35.2 0a1.1 1.1 0 1 0 70.4 0 1.1 1.1 0 1 0-70.4 0Z"  horiz-adv-x="1024" />

    
    <glyph glyph-name="gengduo1" unicode="&#58882;" d="M512-63.466667c-60.3936 0-118.997333 11.835733-174.183467 35.1776-53.287467 22.538667-101.1392 54.797867-142.222933 95.882667-41.0848 41.083733-73.344 88.9344-95.883733 142.222933C76.369067 265.000533 64.533333 323.605333 64.533333 384c0 60.3936 11.835733 118.997333 35.1776 174.183467 22.539733 53.288533 54.798933 101.138133 95.883733 142.222933 41.083733 41.083733 88.935467 73.344 142.222933 95.882667C393.002667 819.630933 451.607467 831.466667 512 831.466667s118.997333-11.835733 174.183467-35.1776c53.287467-22.538667 101.138133-54.798933 142.222933-95.882667 41.0848-41.0848 73.344-88.9344 95.883733-142.222933C947.630933 502.997333 959.466667 444.3936 959.466667 384c0-60.394667-11.835733-118.999467-35.1776-174.184533-22.539733-53.288533-54.798933-101.1392-95.883733-142.222933-41.0848-41.0848-88.935467-73.344-142.222933-95.882667C630.997333-51.630933 572.3936-63.466667 512-63.466667zM512 767.466667c-211.444267 0-383.466667-172.0224-383.466667-383.466667 0-211.444267 172.0224-383.466667 383.466667-383.466667S895.466667 172.555733 895.466667 384C895.466667 595.444267 723.444267 767.466667 512 767.466667zM512 388.8m-64 0a60 60 0 1 0 128 0 60 60 0 1 0-128 0ZM320 388.8m-64 0a60 60 0 1 0 128 0 60 60 0 1 0-128 0ZM704 388.8m-64 0a60 60 0 1 0 128 0 60 60 0 1 0-128 0Z"  horiz-adv-x="1024" />

    
    <glyph glyph-name="xinzeng" unicode="&#58912;" d="M739.456 414.016 551.104 414.016 551.104 620.928c0 13.504-10.496 22.912-33.792 24.256S483.52 634.496 483.52 620.928l0-206.912L284.608 414.016c0 0-37.568 3.456-37.568-27.072 0-41.088 16.064-41.024 29.568-41.024l206.912 0-0.064-216.96c0-16.96-3.52-39.424 31.616-39.424 36.992 0 35.264 34.048 35.264 41.984l0.832 214.464 188.352 0c8.64 0 41.984-2.432 42.432 35.584S739.456 414.016 739.456 414.016zM518.592 853.952c-265.152 0-480-214.848-480-480 0-265.088 214.848-480 480-480s480 214.848 480 480S783.68 853.952 518.592 853.952zM518.592-41.984c-229.76 0-416 186.304-416 416 0 229.76 186.24 416 416 416s416-186.24 416-416C934.528 144.256 748.352-41.984 518.592-41.984z"  horiz-adv-x="1024" />

    
    <glyph glyph-name="select" unicode="&#59136;" d="M724.893 579.477l-312.979-314.548-140.949 140.783c-12.999 13.001-34.11 13.001-47.128 0-13.016-13.052-13.016-34.073 0-47.109l165.013-164.832c12.999-12.997 34.13-12.997 47.128 0 1.569 1.551 2.936 3.248 4.139 5.014l331.94 333.582c12.982 13.054 12.982 34.128 0 47.128-13.035 12.961-34.11 12.961-47.164-0.019M512.005 850.726c-257.848 0-466.726-208.86-466.726-466.725 0-257.847 208.878-466.725 466.726-466.725 257.866 0 466.716 208.878 466.716 466.725 0 257.865-208.85 466.725-466.716 466.725M512.005-24.384c-225.488 0-408.385 182.936-408.385 408.384 0 225.505 182.899 408.384 408.385 408.384 225.468 0 408.385-182.88 408.385-408.384 0-225.449-182.917-408.384-408.385-408.384z"  horiz-adv-x="1024" />

    
    <glyph glyph-name="guanbi1" unicode="&#58914;" d="M511.333 768.667c51.868 0 102.15-10.144 149.451-30.15 45.719-19.337 86.792-47.034 122.078-82.321 35.287-35.286 62.983-76.359 82.321-122.078 20.006-47.3 30.15-97.583 30.15-149.451s-10.144-102.15-30.15-149.451c-19.337-45.719-47.034-86.792-82.321-122.078-35.286-35.287-76.359-62.983-122.078-82.321-47.3-20.006-97.583-30.15-149.451-30.15s-102.15 10.144-149.451 30.15c-45.719 19.337-86.792 47.034-122.078 82.321-35.287 35.286-62.983 76.359-82.321 122.078-20.006 47.3-30.15 97.583-30.15 149.451s10.144 102.15 30.15 149.451c19.337 45.719 47.034 86.792 82.321 122.078 35.286 35.287 76.359 62.983 122.078 82.321 47.301 20.006 97.583 30.15 149.451 30.15m0 64c-247.424 0-448-200.576-448-448s200.576-448 448-448 448 200.576 448 448-200.576 448-448 448zM557.254 384l147.373 147.373c12.497 12.497 12.497 32.758 0 45.255-12.496 12.497-32.758 12.497-45.254 0L512 429.254 364.627 576.627c-12.497 12.497-32.758 12.497-45.255 0s-12.497-32.758 0-45.255L466.746 384 319.373 236.627c-12.497-12.496-12.497-32.758 0-45.254C325.621 185.124 333.811 182 342 182s16.379 3.124 22.627 9.373L512 338.746l147.373-147.373C665.621 185.124 673.811 182 682 182s16.379 3.124 22.627 9.373c12.497 12.496 12.497 32.758 0 45.254L557.254 384z"  horiz-adv-x="1024" />

    
    <glyph glyph-name="xiaofeimingxidan" unicode="&#58948;" d="M959.825022 661.050585C959.825022 755.4978 883.262992 832.059831 788.815776 832.059831H234.949415C140.5022 832.059831 63.940169 755.4978 63.940169 661.050585v-553.866361C63.940169 12.737008 140.5022-63.825022 234.949415-63.825022h553.866361c94.443603 0 171.009246 76.562031 171.009246 171.009246V661.050585z m-63.940168-554.039758c0-28.599679-11.050451-55.400363-31.272884-75.622797S817.588852 0.115146 788.989173 0.115146H235.007214c-28.599679 0-55.515961 11.050451-75.738394 31.272884S127.880338 78.411148 127.880338 107.010827V660.992786A107.170226 107.170226 0 0 0 235.007214 768.119662h553.981959c28.599679 0 55.400363-11.166049 75.622797-31.388482S895.884854 689.592465 895.884854 660.992786v-553.981959zM799.999887 606.643642H224.000113a31.970084 31.970084 0 0 1 0-63.940169h575.999774a31.970084 31.970084 0 0 1 0 63.940169zM799.999887 415.906867H224.000113a31.970084 31.970084 0 1 1 0-63.940169h575.999774a31.970084 31.970084 0 1 1 0 63.940169zM799.999887 225.170092H224.000113a31.970084 31.970084 0 0 1 0-63.940169h575.999774a31.970084 31.970084 0 0 1 0 63.940169z"  horiz-adv-x="1024" />

    
    <glyph glyph-name="ic_fingerprint_px" unicode="&#59589;" d="M759.893 705.28c-3.413 0-6.613 0.853-9.813 2.347-81.707 42.24-152.747 60.373-237.653 60.373-84.694 0-164.48-20.267-237.654-60.16-2.685-1.303-5.841-2.065-9.175-2.065-11.829 0-21.419 9.59-21.419 21.419 0 7.642 4.002 14.35 10.025 18.14 79.663 43.358 166.489 65.332 258.223 65.332 90.88 0 170.24-20.054 257.28-65.067 10.453-5.333 14.506-18.347 9.173-28.8-3.84-7.253-11.307-11.52-18.987-11.52zM149.333 481.28c-4.266 0-8.533 1.28-12.373 3.84-5.487 3.895-9.023 10.224-9.023 17.379 0 4.601 1.462 8.86 3.947 12.338 42.196 59.669 96.169 106.602 160.169 139.669 134.187 69.333 305.707 69.546 440.107 0.426 63.787-32.853 117.547-79.36 160-138.666 6.827-9.6 4.693-22.827-4.907-29.654-9.6-6.826-23.040-4.693-29.866 4.907-38.4 53.76-87.040 96-144.64 125.44-122.454 62.933-278.827 62.72-401.067-0.427-57.813-29.866-106.667-72.32-144.853-126.506-4.267-5.76-10.88-8.747-17.494-8.747zM416.213-33.493c-5.546 0-10.88 2.133-15.146 6.4-36.907 37.333-56.96 61.013-85.76 112.426-29.44 52.48-45.014 116.694-45.014 185.387 0 126.72 108.374 229.973 241.707 229.973s241.707-103.040 241.707-229.973c0-11.733-9.6-21.333-21.334-21.333s-21.333 9.6-21.333 21.333c0 103.253-89.173 187.307-199.040 187.307-109.653 0-199.040-84.054-199.040-187.307 0-61.44 13.653-118.187 39.467-164.48 27.52-49.067 45.866-70.187 78.72-103.253 8.32-8.32 8.32-21.974-0.214-30.080-3.84-4.48-9.386-6.4-14.72-6.4zM721.92 45.44c-50.773 0-95.36 12.8-132.267 37.76-63.36 43.093-101.333 113.067-101.333 187.307 0 11.733 9.6 21.333 21.333 21.333s21.334-9.6 21.334-21.333c0-59.947 30.933-116.694 82.773-151.894 30.080-20.48 65.493-30.506 108.16-30.506 10.24 0 27.52 1.066 44.587 4.053 11.52 2.133 22.613-5.76 24.746-17.28 2.134-11.52-5.76-22.613-17.28-24.747-24.96-4.48-46.080-4.693-52.053-4.693zM635.947-42.667c-1.92 0-3.84 0.214-5.547 0.854-68.053 18.56-112.427 43.733-158.507 89.6-57.055 56.613-92.374 135.060-92.374 221.756 0 0.339 0.001 0.678 0.002 1.016-0 69.281 58.88 125.601 131.413 125.601 72.534 0 131.414-56.32 131.414-125.653 0-45.654 39.893-82.987 88.746-82.987s88.747 37.12 88.747 82.987c0 160.853-138.667 291.626-309.12 291.626-121.387 0-232.107-67.413-282.027-171.946-16.64-34.56-24.96-74.88-24.96-119.68 0-33.28 2.987-85.76 28.374-153.814 4.053-11.093-1.494-23.253-12.587-27.52-11.093-4.053-23.253 1.494-27.52 12.587-20.907 56.107-31.147 111.147-31.147 168.747 0 51.2 9.814 97.706 29.227 138.026 56.96 119.040 182.827 196.054 320.427 196.054 193.92 0 351.786-149.974 351.786-334.294 0-69.333-59.093-125.653-131.413-125.653s-131.413 56.32-131.413 125.653c0 45.654-39.894 82.987-88.747 82.987s-88.747-37.12-88.747-82.987c0-72.746 28.374-141.226 79.787-192.426 40.32-40.107 79.573-62.294 139.733-78.72 11.307-3.2 18.134-14.934 14.934-26.24-2.56-9.387-11.094-15.574-20.48-15.574z"  horiz-adv-x="1024" />

    
    <glyph glyph-name="zhushi" unicode="&#58884;" d="M513.022283 585.118554m-67.039859 0a67.039859 67.039859 0 1 1 134.079718 0 67.039859 67.039859 0 1 1-134.079718 0ZM468.329385 428.693922h89.385796v-312.850288h-89.385796zM513.022283 830.930005c-246.831688 0-446.928982-200.097294-446.928982-446.928982s200.097294-446.928982 446.928982-446.928982 446.928982 200.097294 446.928982 446.928982-200.096271 446.928982-446.928982 446.928982z m0-849.165066c-222.148519 0-402.236084 180.087565-402.236084 402.236084S290.873764 786.237107 513.022283 786.237107s402.236084-180.087565 402.236084-402.236084S735.171826-18.235061 513.022283-18.235061z"  horiz-adv-x="1024" />

    
    <glyph glyph-name="shangyiye" unicode="&#58883;" d="M365.679534 320.691769l460.003326-365.49709c22.379855-11.189928 49.016748-9.973631 70.301936 2.919111s35.394227 35.759116 35.394228 60.328305V749.557905c0 24.569189-14.109039 47.435562-35.394228 60.328305-11.554816 7.05452-24.569189 10.581779-37.82682 10.581779-11.189928 0-22.258225-2.554223-32.475116-7.662668L365.679534 447.308231c-22.136596-20.79867-39.651265-36.488894-39.651265-63.247416 0-26.880152 14.960447-41.47571 39.651265-63.369046zM163.409431-52.467989h-16.784891c-32.475116 0-58.868749 26.393633-58.86875 58.868749V761.59924c0 32.475116 26.393633 58.868749 58.86875 58.868749h16.784891c32.475116 0 58.868749-26.393633 58.868749-58.868749v-755.19848c0-32.475116-26.393633-58.868749-58.868749-58.868749z"  horiz-adv-x="1024" />

    
    <glyph glyph-name="shangyiye1" unicode="&#58881;" d="M658.319 447.308l-460.003 365.497c-22.381 11.19-49.017 9.974-70.302-2.919s-35.394-35.759-35.394-60.328v-731.116c0-24.569 14.109-47.436 35.394-60.328 11.555-7.055 24.569-10.583 37.827-10.582 11.191 0 22.258 2.554 32.475 7.663l460.003 365.497c22.137 20.799 39.651 36.489 39.651 63.247 0 26.88-14.96 41.476-39.651 63.369zM860.592 820.468h16.785c32.475 0 58.869-26.394 58.869-58.869v-755.199c0-32.475-26.394-58.869-58.869-58.869h-16.785c-32.475 0-58.869 26.394-58.869 58.869v755.199c0 32.475 26.394 58.869 58.869 58.869z"  horiz-adv-x="1024" />

    
    <glyph glyph-name="addpeople_fill" unicode="&#59105;" d="M550.4 71.584c-24.736 57.536-53.216 158.016 2.88 237.376 1.216 0.96 2.08 1.792 3.072 2.656A176.864 176.864 0 0 1 627.2 438.4c0.512 5.568 1.216 11.072 1.216 16.768V559.936C628.416 657.024 552.704 736 459.68 736c-93.024 0-168.736-78.976-168.736-176.064v-104.736c0-60.16 29.12-113.312 73.344-145.088a911.264 911.264 0 0 1-158.08-53.28C179.84 245.76 160 214.912 160 185.088v-113.76c0-3.52 0.544-6.976 1.632-10.304 8.64-26.432 31.936-44.16 58.016-44.16h309.664a29.76 29.76 0 0 1 19.68 7.936c6.592 5.888 11.04 14.304 11.04 24.064 0 0.768-0.448 2.048-0.704 3.136a69.664 69.664 0 0 1-8.928 19.584M804.48 170.752h-39.296V128c0-12.384-9.6-22.4-21.504-22.4a21.952 21.952 0 0 0-21.504 22.4v42.752H681.6a21.952 21.952 0 0 0-21.504 22.4c0 12.384 9.6 22.4 21.504 22.4h40.576V256c0 12.384 9.6 22.4 21.504 22.4 11.904 0 21.504-10.016 21.504-22.4v-40.448h39.296c11.904 0 21.504-10.016 21.504-22.4 0-12.384-9.6-22.4-21.504-22.4m-16.064 207.296A176.64 176.64 0 0 1 743.68 384c-101.632 0-184.32-86.08-184.32-192 0-105.888 82.688-192 184.32-192 15.456 0 30.4 2.24 44.736 5.952C868.48 26.88 928 102.208 928 192s-59.52 165.152-139.584 186.048"  horiz-adv-x="1024" />

    
    <glyph glyph-name="addpeople" unicode="&#59106;" d="M352.416 455.2v104.736C352.416 621.76 400.512 672 459.68 672s107.296-50.24 107.296-112.064v-104.736c0-61.792-48.128-112.064-107.296-112.064-59.168 0-107.264 50.24-107.264 112.064m176.896-374.336l-307.84 0.768v103.456c0 4.224 4.608 11.104 8.608 12.768 1.312 0.64 134.912 61.536 237.12 61.536h31.648c16.96 0 30.72 14.336 30.72 32 0 1.216-0.544 2.24-0.672 3.424 58.56 27.616 99.52 89.056 99.52 160.384v104.736C628.416 657.024 552.736 736 459.68 736c-93.024 0-168.704-78.976-168.704-176.064v-104.736c0-60.16 29.088-113.312 73.312-145.088a912.416 912.416 0 0 1-158.08-53.28C179.84 245.76 160 214.912 160 185.088v-113.76c0-3.52 0.544-6.976 1.632-10.304 8.64-26.432 31.936-44.16 58.048-44.16h309.632c16.96 0 30.72 14.336 30.72 32s-13.76 32-30.72 32M743.68 64c-67.776 0-122.88 57.408-122.88 128s55.104 128 122.88 128 122.88-57.408 122.88-128-55.104-128-122.88-128m0 320c-101.664 0-184.32-86.112-184.32-192s82.656-192 184.32-192c101.664 0 184.32 86.112 184.32 192s-82.656 192-184.32 192M804.48 215.552h-39.296V256c0 12.384-9.6 22.4-21.504 22.4a21.952 21.952 0 0 1-21.504-22.4v-40.448H681.6a21.952 21.952 0 0 1-21.504-22.4c0-12.384 9.6-22.4 21.504-22.4h40.576V128c0-12.384 9.6-22.4 21.504-22.4a21.952 21.952 0 0 1 21.504 22.4v42.752h39.296a21.952 21.952 0 0 1 21.504 22.4c0 12.384-9.6 22.4-21.504 22.4"  horiz-adv-x="1024" />

    
    <glyph glyph-name="businesscard_fill" unicode="&#59110;" d="M736 480h-192a32 32 0 1 0 0 64h192a32 32 0 1 0 0-64m0-128h-128a32 32 0 1 0 0 64h128a32 32 0 1 0 0-64m0-128h-128a32 32 0 1 0 0 64h128a32 32 0 1 0 0-64m-510.304 17.536L224 246.528v55.904c0 20.736 13.344 40.608 32.48 48.32 1.024 0.48 20.736 9.024 47.296 16.992a88.736 88.736 0 0 0-12.416 44.736V454.4c0 39.232 25.504 72.288 60.64 84.384 9.12 3.136 18.72 5.216 28.864 5.216a89.76 89.76 0 0 0 89.504-89.6v-41.92c0-15.744-4.416-30.336-11.584-43.2a483.2 483.2 0 0 0 53.664-18.88c12.896-5.344 23.04-16.896 28-30.4 2.112-5.632 3.552-11.52 3.552-17.568l-0.128-50.56a45.44 45.44 0 0 0-45.28-42.016H269.44a46.336 46.336 0 0 0-43.712 31.68M831.936 704H192A64.032 64.032 0 0 1 128 640.224v-512.448C128 92.64 156.8 64 192.096 64h639.84A64 64 0 0 1 896 127.776V640.224A64 64 0 0 1 831.936 704"  horiz-adv-x="1024" />

    
    <glyph glyph-name="businesscard" unicode="&#59111;" d="M736 544h-192a32 32 0 1 1 0-64h192a32 32 0 1 1 0 64M736 416h-128a32 32 0 1 1 0-64h128a32 32 0 1 1 0 64M736 288h-128a32 32 0 1 1 0-64h128a32 32 0 1 1 0 64M831.936 128L192 127.776 192.096 640 832 640.224l0.224-512.192-0.32-0.032m0 576H192.128A64.032 64.032 0 0 1 128 640.224v-512.448C128 92.64 156.768 64 192.096 64h639.84A64 64 0 0 1 896 127.776V640.224A64 64 0 0 1 831.936 704M480 273.856H288v20.736c20.64 8.32 63.84 23.04 96 23.04 31.744 0 74.656-14.496 96-23.072v-20.704zM355.36 454.4c0 14.368 11.232 25.6 25.504 25.6a25.6 25.6 0 0 0 25.504-25.6v-41.92a25.28 25.28 0 0 0-25.504-25.632 25.6 25.6 0 0 0-25.504 25.6V454.4z m157.088-104a483.2 483.2 0 0 1-53.664 18.88c7.168 12.864 11.584 27.456 11.584 43.2V454.4c0 49.408-40.16 89.6-89.504 89.6a89.664 89.664 0 0 1-89.504-89.6v-41.92c0-16.352 4.736-31.52 12.416-44.736-26.56-8-46.272-16.512-47.296-16.992A53.152 53.152 0 0 1 224 302.4v-55.904l1.696-4.992c6.464-18.976 24.032-31.68 43.712-31.68h229.184a45.44 45.44 0 0 1 45.28 42.016L544 302.4c0 20.576-13.28 40.416-31.552 47.968z"  horiz-adv-x="1024" />

    
    <glyph glyph-name="camera_fill" unicode="&#59112;" d="M528 512c88.224 0 160-71.776 160-160s-71.776-160-160-160-160 71.776-160 160 71.776 160 160 160m320 105.728a62.688 62.688 0 0 1-15.968 2.24h-104.832L704.704 672l-6.688 15.488C686.016 715.136 654.272 736 624.128 736h-192.288c-30.144 0-61.888-20.864-73.856-48.544L351.296 672l-22.496-52H223.968c-5.536 0-10.848-0.96-15.968-2.272a64.16 64.16 0 0 1-48-62.08v-439.36c0-29.888 20.448-54.816 48-62.016 5.12-1.312 10.432-2.272 15.968-2.272h608.064c5.536 0 10.848 0.96 15.968 2.24a64.224 64.224 0 0 1 48 62.048v439.36c0 29.92-20.48 54.912-48 62.08"  horiz-adv-x="1024" />

    
    <glyph glyph-name="camera" unicode="&#59113;" d="M224 116.288l-0.128 439.712h146.976l45.856 106.048c1.856 4.256 10.496 9.952 15.136 9.952h192.288c4.768 0 13.248-5.6 15.136-9.92l45.856-106.08 146.88-0.32 0.032-439.68L224 116.32zM832.032 620h-104.832l-29.184 67.52C686.016 715.104 654.272 736 624.128 736h-192.288c-30.144 0-61.888-20.864-73.856-48.544l-29.184-67.456H223.968A64.224 64.224 0 0 1 160 555.68v-439.36c0-35.488 28.672-64.32 63.968-64.32h608.064A64.192 64.192 0 0 1 896 116.32v439.36c0 35.456-28.704 64.32-63.968 64.32zM528 256c-52.928 0-96 43.072-96 96s43.072 96 96 96 96-43.072 96-96-43.072-96-96-96m0 256c-88.224 0-160-71.776-160-160s71.776-160 160-160 160 71.776 160 160-71.776 160-160 160"  horiz-adv-x="1024" />

    
    <glyph glyph-name="offline_fill" unicode="&#59154;" d="M645.568 358.4h-256a32 32 0 0 0 0 64h256a32 32 0 0 0 0-64M512 768C300.288 768 128 595.712 128 384c0-211.744 172.288-384 384-384 211.744 0 384 172.256 384 384 0 211.712-172.256 384-384 384"  horiz-adv-x="1024" />

    
    <glyph glyph-name="scan" unicode="&#59170;" d="M832 416H192a32 32 0 0 1 0-64h640a32 32 0 0 1 0 64M800.256 736H223.712a63.808 63.808 0 0 1-63.68-63.744V512a32 32 0 1 1 64 0l-0.32 160 576.32 0.256V512a32 32 0 1 1 64 0V672.256A63.84 63.84 0 0 1 800.224 736M832 288a32 32 0 0 1-32-32l0.256-160L224 95.744V256a32 32 0 0 1-64 0v-160.256C160 60.608 188.608 32 223.744 32h576.512A63.84 63.84 0 0 1 864 95.744V256a32 32 0 0 1-32 32"  horiz-adv-x="1024" />

    
    <glyph glyph-name="send" unicode="&#59174;" d="M832 320a32 32 0 0 1-32-32l0.256-192L224 95.744 223.744 672H416a32 32 0 0 1 0 64H223.744A63.84 63.84 0 0 1 160 672.256v-576.512C160 60.608 188.608 32 223.744 32h576.512A63.84 63.84 0 0 1 864 95.744V288a32 32 0 0 1-32 32M800.544 736H640a32 32 0 0 1 0-64l114.944 0.192-265.6-265.568a32 32 0 0 1 45.28-45.248l265.664 265.632v-115.264a32 32 0 1 1 64 0V672.256A63.84 63.84 0 0 1 800.544 736"  horiz-adv-x="1024" />

    
    <glyph glyph-name="share" unicode="&#59177;" d="M736 96c-35.296 0-64 28.704-64 64s28.704 64 64 64 64-28.704 64-64-28.704-64-64-64M288 320c-35.296 0-64 28.704-64 64s28.704 64 64 64 64-28.704 64-64-28.704-64-64-64M736 672c35.296 0 64-28.704 64-64s-28.704-64-64-64-64 28.704-64 64 28.704 64 64 64m0-384a127.776 127.776 0 0 1-115.232-73.28l-204.896 117.056a30.848 30.848 0 0 1-9.696 3.2A127.68 127.68 0 0 1 416 384c0 6.656-0.992 13.088-1.984 19.456 0.608 0.32 1.28 0.416 1.856 0.768l219.616 125.472A127.328 127.328 0 0 1 736 480c70.592 0 128 57.408 128 128s-57.408 128-128 128-128-57.408-128-128c0-6.72 0.992-13.152 1.984-19.616-0.608-0.288-1.28-0.256-1.856-0.608l-219.616-125.472A127.328 127.328 0 0 1 288 512c-70.592 0-128-57.408-128-128s57.408-128 128-128a126.912 126.912 0 0 1 84.544 32.64 31.232 31.232 0 0 1 11.584-12.416l224-128c0.352-0.224 0.736-0.256 1.12-0.448C615.488 83.008 669.6 32 736 32c70.592 0 128 57.408 128 128s-57.408 128-128 128"  horiz-adv-x="1024" />

    
    <glyph glyph-name="success_fill" unicode="&#59181;" d="M666.272 423.712l-175.616-192a31.904 31.904 0 0 0-23.616-10.4h-0.192a32 32 0 0 0-23.68 10.688l-85.728 96a32 32 0 1 0 47.744 42.624l62.144-69.6 151.712 165.888a32 32 0 1 0 47.232-43.2m-154.24 344.32C300.224 768 128 595.68 128 384c0-211.776 172.224-384 384-384 211.68 0 384 172.224 384 384 0 211.68-172.32 384-384 384"  horiz-adv-x="1024" />

    
    <glyph glyph-name="shezhiguishu" unicode="&#58885;" d="M1072.315 489.71c-6.332 33.462-26.766 55.082-52.055 55.082-0.323 0-0.651-0.003-0.83-0.01h-4.657c-73.136 0-132.638 59.502-132.638 132.64 0 23.735 11.449 50.344 11.547 50.573 13.107 29.504 3.024 65.683-23.431 84.14l-1.602 1.128L734.228 887.936l-1.7 0.746c-8.756 3.806-18.338 5.736-28.484 5.736-20.793 0-41.242-8.345-54.692-22.31-14.744-15.218-65.634-58.659-104.738-58.659-39.457 0-90.648 44.294-105.455 59.794C425.638 887.493 405.025 896 384.023 896c-9.948 0-19.357-1.862-27.963-5.533l-1.747-0.74L215.15 813.282l-1.643-1.14c-26.541-18.44-36.681-54.587-23.589-84.075 0.116-0.265 11.582-26.73 11.582-50.643 0-73.138-59.501-132.639-132.639-132.639h-4.582c-0.32 0.006-0.636 0.01-0.952 0.01-25.265 0-45.68-21.62-52.01-55.089C10.852 487.253 0 429.075 0 383.573s10.853-103.677 11.317-106.137c6.335-33.463 26.763-55.085 52.044-55.085 0.32 0 0.652 0.007 0.843 0.013h4.656c73.138 0 132.64-59.501 132.64-132.638 0-23.764-11.447-50.34-11.549-50.573-13.096-29.479-3.042-65.656 23.4-84.165l1.569-1.094 131.86-73.738 1.675-0.738c8.752-3.843 18.309-5.791 28.402-5.791 21.086 0 41.683 8.707 55.098 23.294 18.727 20.35 69.538 62.372 107.065 62.372 40.632 0 92.74-47.107 107.776-63.594 13.444-14.833 34.181-23.693 55.48-23.699h0.006c9.896 0 19.281 1.884 27.898 5.6l1.711 0.738 136.681 75.544 1.617 1.13c26.497 18.458 36.608 54.608 23.543 84.028-0.116 0.268-11.597 27.087-11.597 50.685 0 73.136 59.502 132.637 132.638 132.637l4.518 0.002c0.3-0.006 0.6-0.01 0.9-0.01 25.335 0.002 45.792 21.624 52.115 55.064 0.113 0.59 11.328 59.517 11.328 106.158 0 45.71-10.857 103.687-11.319 106.134z m-694.77-539.514L262.2 14.694c5.083 13.054 15.44 43.525 15.44 75.03 0 109.4-84.19 199.847-192.617 208.166-2.648 15.43-8.876 54.976-8.876 85.681 0 30.662 6.225 70.243 8.871 85.685 108.433 8.313 192.622 98.761 192.622 208.167 0 31.421-10.301 61.807-15.374 74.866l122.741 67.414 0.008-0.001c4.424-4.52 22.125-22.084 46.565-39.5 39.936-28.467 77.965-42.902 113.033-42.902 34.722 0 72.449 14.154 112.132 42.071 24.286 17.082 41.903 34.308 46.316 38.752 0.01 0.001 0.019 0.004 0.026 0.006l118.32-65.737c-5.078-13.057-15.418-43.506-15.418-74.97 0-109.406 84.188-199.854 192.62-208.167 2.647-15.465 8.874-55.116 8.874-85.686 0-30.692-6.224-70.252-8.87-85.686-108.432-8.312-192.623-98.76-192.623-208.167 0-31.455 10.319-61.861 15.396-74.916l-119.802-66.209c-5.17 5.491-22.607 23.367-46.747 41.295-40.708 30.229-79.675 45.556-115.819 45.556-35.797 0-74.47-15.041-114.945-44.701-23.79-17.44-41.347-35.143-46.527-40.545zM731.386 384.273c0 105.82-86.095 191.911-191.918 191.911-105.82 0-191.91-86.09-191.91-191.91s86.09-191.913 191.91-191.913c105.825 0 191.918 86.092 191.918 191.912zM539.468 500.035c63.836 0 115.77-51.93 115.77-115.762 0-63.835-51.934-115.769-115.77-115.769-63.831 0-115.762 51.934-115.762 115.77 0 63.832 51.93 115.761 115.762 115.761z"  horiz-adv-x="1084" />

    
    <glyph glyph-name="shebeicanshupeizhi" unicode="&#58886;" d="M538.56 489.344v303.04c0 14.592-11.84 26.368-26.56 26.368s-26.56-11.776-26.56-26.368v-303.04c-47.232-11.84-82.368-54.016-82.368-104.512s35.2-92.672 82.368-104.512v-304.704c0-14.592 11.904-26.368 26.624-26.368s26.56 11.776 26.56 26.368V280.32c47.232 11.84 82.368 54.016 82.368 104.512s-35.2 92.672-82.432 104.512z m0-152.256c-8-4.416-16.768-7.616-26.56-7.616-9.792 0-18.56 3.2-26.624 7.68-17.088 9.408-29.184 26.88-29.184 47.68s12.096 38.208 29.184 47.744c8.064 4.416 16.832 7.616 26.624 7.616 9.792 0 18.56-3.2 26.56-7.616 17.088-9.472 29.184-26.944 29.184-47.744 0.064-20.8-12.032-38.272-29.184-47.744z m-339.008-30.912V792.384c0 14.592-11.904 26.432-26.56 26.432s-26.624-11.84-26.624-26.432V306.24C99.2 294.336 64 252.16 64 201.664c0-50.496 35.136-92.672 82.368-104.512v-121.6c0-14.592 11.904-26.368 26.56-26.368s26.56 11.776 26.56 26.368v121.6c47.232 11.84 82.368 54.016 82.368 104.512 0.064 50.496-35.072 92.672-82.304 104.512z m0-152.192c-8-4.416-16.768-7.68-26.56-7.68s-18.56 3.2-26.56 7.68c-17.088 9.472-29.184 26.944-29.184 47.744s12.096 38.272 29.184 47.68c8 4.416 16.768 7.68 26.56 7.68s18.56-3.2 26.56-7.68c17.088-9.472 29.184-26.944 29.184-47.68 0-20.8-12.096-38.272-29.184-47.744z m678.08 518.528V792.384c0 14.592-11.904 26.432-26.624 26.432s-26.56-11.776-26.56-26.432v-119.872C777.28 660.672 742.08 618.496 742.08 568s35.2-92.672 82.368-104.512V-24.32c0-14.592 11.904-26.368 26.56-26.368s26.624 11.776 26.624 26.368V463.424C924.8 475.328 960 517.44 960 567.936s-35.2 92.672-82.368 104.576z m0-152.256c-8-4.48-16.768-7.616-26.624-7.616-9.792 0-18.56 3.2-26.56 7.616-17.088 9.472-29.184 26.944-29.184 47.68 0 20.8 12.096 38.272 29.184 47.744 8 4.416 16.768 7.616 26.56 7.616 9.792 0 18.56-3.2 26.624-7.616 17.088-9.472 29.184-26.944 29.184-47.744 0-20.736-12.096-38.208-29.184-47.68z"  horiz-adv-x="1024" />

    
    <glyph glyph-name="chaxun" unicode="&#58892;" d="M1011.46-55.127L829.836 126.497A465.73 465.73 0 0 1 938.63 426.004c0 258.421-210.551 468.63-469.313 468.63S0.004 684.426 0.004 426.005s210.551-468.63 469.314-468.63c114.085 0 218.742 40.958 300.19 108.795l181.624-181.624a42.537 42.537 0 0 1 60.328 0 42.622 42.622 0 0 1 0 60.328z m-542.142 97.83c-211.703 0-383.984 171.94-383.984 383.301S257.614 809.305 469.318 809.305c211.745 0 383.983-171.94 383.983-383.3S681.063 42.702 469.318 42.702z"  horiz-adv-x="1024" />

    
    <glyph glyph-name="shanchuquanbu" unicode="&#58893;" d="M665.7 515h-13.5v-340.1h-44.7V515H533v-340.1h-44.7V515h-74.5v-340.1h-44.7V515h-28.4c-33.7 0-60.9 0.5-60.9 0v-355.4c0-32.7 27.3-59.2 60.9-59.2h325c33.7 0 60.9 26.5 60.9 59.2V515c0 2.5-27.2 0-60.9 0z m90.2 106.8H622.4v36.4c0 21.1-37.7 38.1-59.6 38.1H443.6c-21.9 0-59.6-17.1-59.6-38.1v-36.4H250.4c-16.8 0-30.3-13.3-30.3-29.8s13.6-29.8 30.3-29.8h505.5c16.7 0 30.3 13.3 30.3 29.8s-13.5 29.8-30.3 29.8z m-193.1 0H443.6v14.9h119.2v-14.9zM511-44.4c-58 0-114.3 11.4-167.4 33.8-51.2 21.7-97.2 52.7-136.7 92.1-39.5 39.5-70.5 85.5-92.1 136.7C92.4 271.2 81 327.6 81 385.6S92.4 499.9 114.8 553c21.7 51.2 52.7 97.2 92.1 136.7 39.5 39.5 85.5 70.5 136.7 92.1 53 22.4 109.3 33.8 167.4 33.8 58 0 114.3-11.4 167.4-33.8 51.2-21.7 97.2-52.7 136.7-92.1 39.5-39.5 70.5-85.5 92.1-136.7 22.4-53 33.8-109.3 33.8-167.4 0-58-11.4-114.3-33.8-167.4C885.5 167 854.5 121 815 81.6s-85.5-70.5-136.7-92.1C625.3-33 569-44.4 511-44.4z m0 820c-215 0-390-174.9-390-390s174.9-390 390-390 390 174.9 390 390-175 390-390 390z"  horiz-adv-x="1024" />

    
    <glyph glyph-name="rili" unicode="&#58894;" d="M170.236 788.898c0-19.462-0.054-38.187 0.012-56.912 0.167-46.854 33.232-85.776 76.205-89.78 46.784-4.359 86.503 26.654 94.382 74.459 1.654 10.029 0.83 20.518 0.925 30.794 0.125 13.573 0.03 27.147 0.03 41.598h340.623c0-19.219-0.076-38.554 0.014-57.89 0.175-37.676 20.803-69.3 54.28-83.395 54.225-22.835 116.18 19.11 117.238 79.548 0.355 20.477 0.055 40.964 0.055 63.727 30.877-1.297 61.125 0.744 90.127-4.53 47.829-8.7 79.449-52.579 79.665-104.366 0.277-66.171 0.152-132.349 0.148-198.525-0.01-166.538 0.019-333.078-0.117-499.617-0.053-65.63-43.865-110.962-107.24-110.98-270.623-0.076-541.24-0.073-811.86 0C45.67-126.954 0.633-80.866 0.528-19.582 0.243 148.798 0.388 317.177 0.38 485.555 0.376 551.361 0.188 617.172 0.513 682.976c0.246 50.005 29.928 89.814 76.239 103.21 4.422 1.28 9.034 2.547 13.567 2.588 26.219 0.249 52.44 0.124 79.917 0.124zM67.8 507.768v-16.484c0.023-157.342 0.076-314.682 0.048-472.023-0.003-27.458 13.312-41.273 39.79-41.264 173.174 0.054 346.35 0.032 519.525 0.035 97.432 0.003 194.866 0.096 292.299-0.11 12.786-0.028 24.104 3.882 30.007 15.164 4.459 8.516 6.7 19.32 6.73 29.118 0.412 140.797 0.284 281.596 0.284 422.395v63.17H67.799zM306.808 789.653c0-16.886 0.186-33.776-0.042-50.661-0.412-30.67-22.341-53.971-50.596-54.073-28.334-0.103-50.868 24.1-50.924 54.905-0.06 34.508-0.214 69.021 0.16 103.524 0.246 22.645 12.784 40.78 32.383 48.492 20.082 7.9 40.583 3.106 55.512-13.247 9.482-10.387 13.41-23.146 13.551-37.177 0.175-17.254 0.042-34.509 0.042-51.763h-0.086zM818.984 789.633c-0.004-16.886 0.183-33.776-0.045-50.661-0.416-30.664-22.36-53.965-50.613-54.054-28.339-0.091-50.855 24.11-50.908 54.925-0.06 34.507-0.214 69.02 0.163 103.524 0.247 22.63 12.802 40.775 32.4 48.478 20.082 7.89 40.586 3.087 55.507-13.27 9.478-10.388 13.323-23.15 13.547-37.18 0.141-8.807-0.032-17.621-0.047-26.43-0.011-8.445-0.001-16.888-0.004-25.332zM886.76 153.848V50.32H752.312V153.848H886.76zM547.492 153.974h134.36v-103.613h-134.36V153.974zM476.977 49.962H342.64v103.8h134.337v-103.8zM137.46 50.062V153.675H272.03v-103.613H137.46zM752.251 295.481h134.204v-104.014H752.251V295.48zM681.941 295.102v-103.635H547.388V295.102H681.94zM342.344 191.271v103.61h134.542v-103.61H342.344zM272.103 191.166h-134.33V294.961h134.33v-103.795zM752.178 436.348h134.347v-103.774H752.178V436.348zM547.203 332.48V436.083h134.56V332.48h-134.56zM477.032 436.15v-103.727H342.665V436.151h134.367z"  horiz-adv-x="1024" />

    
    <glyph glyph-name="tianjiarenyuan" unicode="&#58895;" d="M914.9 125.4H811.2v-103.8H707.4V125.4H603.6V229.3h103.8V333.1h103.8v-103.8H915v-103.9zM651.6 480c-9.4-72.8-39.6-96-39.6-96l0.7-77.4s9.8-5.9 42.7-20.7v-4.8H551.6v-207.6h103.8v-103.8H108s-6.5 162.8 15.2 196.7c24.2 37.8 105.7 61.3 186.3 95 80.6 33.6 99.7 45.3 99.7 45.3l0.8 77.3s-30.2 23.2-39.6 96c-18.9-5.5-38.7 28.2-39.8 45.9-1 17.1 2.6 64.5 25.6 59.7-4.7 35.6-8.1 67.8-6.4 84.8 6 62.1 67.2 127.7 161.2 127.7 94 0 155.2-65.6 161.2-127.7 1.6-17-1.8-49.1-6.5-84.8 23 4.8 26.7-42.7 25.6-59.7-0.9-17.7-20.8-51.4-39.7-45.9z"  horiz-adv-x="1024" />

    
    <glyph glyph-name="qingchurenyuan" unicode="&#58896;" d="M627.9 30.2v102.2h306.6v-102.2h-306.6zM576.8 183.5v-204.4h-488s-6.4 160.2 15 193.6c23.9 37.2 104.1 60.4 183.4 93.5 79.4 33.1 98.2 44.6 98.2 44.6l0.8 76.1s-29.8 22.8-39 94.5c-18.6-5.4-38.1 27.8-39.2 45.2-1 16.8 2.6 63.5 25.2 58.8-4.6 35.1-8 66.7-6.3 83.5 5.9 61.1 66.1 125.7 158.7 125.7s152.8-64.6 158.7-125.7c1.6-16.7-1.7-48.4-6.4-83.5 22.7 4.7 26.3-42 25.3-58.8-1-17.4-20.6-50.6-39.2-45.2-9.2-71.7-39-94.5-39-94.5l0.7-76.1s18.8-11.5 98.2-44.6c71.4-29.8 143-51.5 174.1-82.7h-281.2z"  horiz-adv-x="1024" />

    
    <glyph glyph-name="zhouqipaiban" unicode="&#58897;" d="M928.896 536.448v-584.192c-1.536-3.712-7.296-9.6-10.88-11.008h-813.44c-3.584 1.408-9.472 7.296-10.88 11.008V536.448h835.2m38.4 38.4h-912v-624c0-21.248 26.112-48 48-48h816c21.888 0 48 26.752 48 48v624zM391.296 430.848h288v-96l-144-336h-96l144 336h-192v96z m528 336h-144v96h-96v-96h-336v96h-96v-96h-144c-21.888 0-48-26.752-48-48v-96h912v86.4c0 21.12-12.544 57.6-48 57.6z"  horiz-adv-x="1024" />

    
    <glyph glyph-name="lingshipaiban" unicode="&#58898;" d="M871.293978 756.490795H731.176624V849.902364h-93.411569v-93.411569H310.824563V849.902364H217.412994v-93.411569H77.295641c-21.285188 0-46.705785-26.028745-46.705785-46.705785v-93.411569h887.409906v84.046086c0 20.55541-12.162965 56.071267-46.705784 56.071268zM917.999762 568.45136v-50.476304H79.241715v-392.377242c0-24.934078 18.730966-49.868155 49.868156-49.868155h323.77812c12.406224 0 24.934078-12.406224 24.934078-24.934078s-12.406224-24.934078-24.934078-24.934077L129.109871 32.064616c-56.071267 0-99.614681 43.543414-99.614682 99.614681V568.45136m49.746526-0.608148h747.292553M185.059508 418.360375h199.229362v-49.868155H185.059508v49.868155z m0-186.823138h199.229362v-49.868155H185.059508v49.868155z m548.063191-49.746526V324.948806h49.868155v-93.411569h93.411569v-49.868155H733.122699v0.121629zM757.935147-29.966504c-62.274379 0-124.548759 24.934078-168.092173 68.477491-43.543414 43.543414-68.477491 105.817793-68.477491 168.092173s24.934078 124.548759 68.477491 168.092172 105.817793 68.477491 168.092173 68.477491c62.274379 0 124.548759-24.934078 168.092172-68.477491s68.477491-105.817793 68.477492-168.092172-24.812448-124.548759-68.355862-168.092173c-43.665043-43.543414-99.614681-68.477491-168.213802-68.477491z m0 429.717543c-105.817793 0-193.02625-87.208457-193.02625-193.02625S652.117354 13.576909 757.935147 13.576909s193.02625 87.208457 193.02625 193.026251S863.874569 399.751039 757.935147 399.751039z"  horiz-adv-x="1024" />

    
    <glyph glyph-name="xiugai" unicode="&#58900;" d="M626.9 647.8L148.2 169.1 92.1-36.3l204.6 57 480.5 480.5-150.3 146.6z m274.3 125.8c-41 41-107.5 41-148.5 0l-80.5-80.5L823.1 547l78.1 78.2c41 41 41 107.5 0 148.4zM415.1-36.3h452.2v64.6H415.1v-64.6z m193.8 193.8h258.4v64.6H608.9v-64.6z"  horiz-adv-x="1024" />

    
    <glyph glyph-name="sousuo-fangdajing" unicode="&#58902;" d="M861.4-22.9H163.8c-36.4 0-66.1 29.7-66.1 66.1V740.8c0 36.4 29.7 66.1 66.1 66.1h697.6c36.4 0 66.1-29.7 66.1-66.1v-697.6c0-36.3-29.8-66.1-66.1-66.1zM789.2 154.9L657.7 278.8c32.8 41 52.5 93 52.5 149.6 0 132.3-107.2 239.5-239.5 239.5S231.2 560.7 231.2 428.4s107.2-239.5 239.5-239.5c58.6 0 112.3 21 153.9 56l132.1-124.5c6.9-6.5 18.8-5.2 26.5 2.9l4.8 5.1c7.6 8 8.2 19.9 1.2 26.5zM276.1 428.4c0 107.5 87.1 194.6 194.6 194.6s194.6-87.1 194.6-194.6-87.1-194.6-194.6-194.6-194.6 87.1-194.6 194.6z"  horiz-adv-x="1024" />

    
    <glyph glyph-name="shezhiweiqishiye" unicode="&#58903;" d="M701.8101-125.767V177.651H511.2021v-304.066c-5.835 0-11.022-0.649-15.56-0.649H225.9371c-31.12 0-51.867 20.099-51.867 52.515-0.648 124.48-0.648 249.607 0 374.086 0 6.483 5.187 14.912 9.725 19.45 81.69 71.316 163.38 142.632 245.069 214.597 54.46 47.328 108.919 95.304 163.379 142.632 4.538 3.89 8.428 7.132 13.615 11.67 32.416-28.526 64.833-56.404 97.249-84.93 106.326-93.36 212.652-186.72 319.626-279.43 11.67-9.726 16.209-20.099 16.209-36.307-0.649-118.644-0.649-236.64 0-355.285 0-21.394-5.187-40.196-22.692-51.866-6.483-4.538-14.912-7.78-22.043-7.78-95.305-0.648-191.257 0-286.562 0-1.945 0.648-3.241 1.297-5.835 1.945zM845.0911 713.82V856.452c0 29.175 6.483 36.306 34.362 36.306h129.017c22.043 0 29.823-8.428 29.823-33.064 0-98.546 0.649-197.74 0-296.287 0-15.56 3.89-25.285 14.912-35.01 47.328-40.196 93.36-81.69 140.039-122.534 22.691-20.098 23.34-29.823 3.89-53.811-11.67-14.263-22.692-29.175-35.01-44.087-14.263-18.153-26.581-18.801-43.438-3.89-165.324 146.523-330 292.397-495.324 438.92-5.834 5.186-11.67 9.724-18.153 15.56-36.954-33.066-73.91-65.482-110.864-97.899-134.204-118.644-267.76-237.288-401.964-355.932-18.153-16.209-29.175-14.912-44.735 3.89-12.318 15.56-25.285 31.768-37.603 47.328-14.263 18.801-13.615 30.471 3.89 46.031 74.558 66.13 149.764 132.908 224.322 199.037 99.843 88.173 199.685 175.697 299.528 264.519 45.383 40.196 89.47 40.196 134.853 0 53.81-47.977 107.622-95.305 161.434-143.281 2.593-1.945 5.834-4.539 11.021-8.429z"  horiz-adv-x="1211" />

    
    <glyph glyph-name="cuo" unicode="&#58904;" d="M512 819.495c-240.462 0-435.434-194.972-435.434-435.434s194.972-435.434 435.434-435.434 435.434 194.972 435.434 435.434-194.972 435.434-435.434 435.434zM723.879 240.051l-68.234-68.234-143.036 142.915-141.82-141.699-68.234 68.234 141.82 141.82-142.915 142.915 68.234 68.234 142.915-142.915 144.131 144.131 68.234-68.234-144.131-144.131 143.036-143.036z"  horiz-adv-x="1024" />

    
    <glyph glyph-name="dui" unicode="&#58905;" d="M512 832.874c-240.462 0-435.434-194.972-435.434-435.434s194.972-435.434 435.434-435.434 435.434 194.972 435.434 435.434-194.851 435.434-435.434 435.434zM450.942 210.374l-189.986 190.229 59.112 59.112 129.536-129.657 252.868 252.868 60.328-60.328-311.858-312.223z"  horiz-adv-x="1024" />

    
    <glyph glyph-name="zhuxiaoguanliqia" unicode="&#58907;" d="M114.696757 131.192778V491.824682c0 14.352298 11.554816 25.907115 25.907115 25.907115h742.913885c14.352298 0 25.907115-11.554816 25.907115-25.907115v-62.396009c0-10.581779 6.446371-20.068892 16.176743-23.96104l3.892149-1.581186c17.028151-6.81126 35.515857 5.594964 35.637487 23.961041l0.973037 260.287445c0 21.163559-16.906521 37.82682-37.82682 37.82682H95.722532c-20.920299 0-37.82682-17.028151-37.82682-37.82682v-575.91638c0-21.041929 16.906521-37.82682 37.82682-37.82682v0.12163h515.952964c17.514669 0 29.920893 17.028151 24.690818 33.691412l-1.581185 4.865186c-3.40563 10.825039-13.379261 18.122817-24.690819 18.122817H114.696757z m0 537.96793h768.821c14.352298 0 25.907115-11.554816 25.907115-25.907115V600.439957c0-14.352298-11.554816-25.907115-25.907115-25.907115H140.603872c-14.352298 0-25.907115 11.554816-25.907115 25.907115v68.720751zM189.62062 385.277111C173.930396 385.277111 161.280912 372.627628 161.280912 356.937403s12.649483-28.339708 28.339708-28.339707h197.404917c15.690224 0 28.339708 12.649483 28.339708 28.339707s-12.649483 28.339708-28.339708 28.339708H189.62062zM903.708279 316.313101l-68.355862-68.355861-68.355862 68.355861c-13.987409 13.987409-34.42119 16.420002-45.489488 5.351705s-8.635705-31.380449 5.351705-45.489488l68.355862-68.355862L726.858772 139.463594c-13.987409-13.987409-16.420002-34.42119-5.351705-45.489488s31.380449-8.635705 45.489488 5.351705l68.355862 68.355861 68.355862-68.355861c13.987409-13.987409 34.42119-16.420002 45.489488-5.351705 11.068298 11.068298 8.635705 31.380449-5.351705 45.489488l-68.355861 68.355862 68.355861 68.355862c13.987409 13.987409 16.420002 34.42119 5.351705 45.489488-11.189928 11.068298-31.502079 8.635705-45.489488-5.351705z"  horiz-adv-x="1024" />

    
    <glyph glyph-name="guashi" unicode="&#58908;" d="M114.696757 131.192778V491.824682c0 14.352298 11.554816 25.907115 25.907115 25.907115h742.913885c14.352298 0 25.907115-11.554816 25.907115-25.907115v-62.396009c0-10.581779 6.446371-20.068892 16.176743-23.96104l3.892149-1.581186c17.028151-6.81126 35.515857 5.594964 35.637487 23.961041l0.973037 260.287445c0 21.163559-16.906521 37.82682-37.82682 37.82682H95.722532c-20.920299 0-37.82682-17.028151-37.82682-37.82682v-575.91638c0-21.041929 16.906521-37.82682 37.82682-37.82682v0.12163h433.001544c19.095855 0 32.840005 18.609336 27.001782 36.853783-3.770519 11.798076-14.717187 19.825632-27.001782 19.825632H114.696757z m0 537.96793h768.821c14.352298 0 25.907115-11.554816 25.907115-25.907115V600.439957c0-14.352298-11.554816-25.907115-25.907115-25.907115H140.603872c-14.352298 0-25.907115 11.554816-25.907115 25.907115v68.720751zM189.62062 385.277111C173.930396 385.277111 161.280912 372.627628 161.280912 356.937403s12.649483-28.339708 28.339708-28.339707h197.404917c15.690224 0 28.339708 12.649483 28.339708 28.339707s-12.649483 28.339708-28.339708 28.339708H189.62062zM920.49317 279.580948l-40.502672-40.502673c-15.082076-15.082076-36.367265-19.947262-55.584749-14.717187l33.813042 33.813042c0.486519 0.486519 1.094667 0.729778 1.459556 1.216296l40.502672 40.502673c11.189928 11.189928 11.189928 29.312745 0 40.502672-11.189928 11.189928-29.312745 11.189928-40.502672 0L819.297304 299.893099l-35.029339-35.029338c-4.986816 19.095855-0.12163 40.259413 14.838817 55.219859l40.502673 40.502673c22.379855 22.379855 58.62549 22.379855 81.005345 0 22.258225-22.258225 22.258225-58.50386-0.12163-81.005345z m-166.510987-106.425941c-2.675852-2.675852-6.324742-4.257038-10.46015-4.257038-8.027557 0-14.595558 6.446371-14.595557 14.473928 0 4.257038 1.824445 7.905927 4.621926 10.581779l96.209051 96.087422c2.675852 2.797482 6.446371 4.621927 10.58178 4.621926 8.027557 0 14.595558-6.446371 14.595557-14.473928 0-4.013778-1.581185-7.541038-4.135408-10.21689l-96.817199-96.817199z m-30.042523 31.623708l-40.502672-40.502673c-11.189928-11.189928-11.189928-29.312745 0-40.502672 11.189928-11.189928 29.312745-11.189928 40.502672 0l40.502673 40.502672c0.243259 0.243259 0.486519 0.608148 0.729778 0.973037l34.29956 34.177931c5.108445-19.095855 0.243259-40.381043-14.717187-55.463119l-40.502673-40.502672c-22.379855-22.379855-58.62549-22.379855-81.005345 0-22.379855 22.379855-22.379855 58.74712 0 81.126974l40.502673 40.502673c14.960447 15.082076 36.245635 19.947262 55.341489 14.717187l-34.907708-34.786079c-0.12163 0-0.12163-0.12163-0.24326-0.243259z"  horiz-adv-x="1024" />

    
    <glyph glyph-name="jiegua" unicode="&#58909;" d="M114.696757 131.192778V491.824682c0 14.352298 11.554816 25.907115 25.907115 25.907115h742.913885c14.352298 0 25.907115-11.554816 25.907115-25.907115v-62.396009c0-10.581779 6.446371-20.068892 16.176743-23.96104l3.892149-1.581186c17.028151-6.81126 35.515857 5.594964 35.637487 23.961041l0.973037 260.287445c0 21.163559-16.906521 37.82682-37.82682 37.82682H95.722532c-20.920299 0-37.82682-17.028151-37.82682-37.82682v-575.91638c0-21.041929 16.906521-37.82682 37.82682-37.82682v0.12163h433.001544c19.095855 0 32.840005 18.609336 27.001782 36.853783-3.770519 11.798076-14.717187 19.825632-27.001782 19.825632H114.696757z m0 537.96793h768.821c14.352298 0 25.907115-11.554816 25.907115-25.907115V600.439957c0-14.352298-11.554816-25.907115-25.907115-25.907115H140.603872c-14.352298 0-25.907115 11.554816-25.907115 25.907115v68.720751zM189.62062 385.277111C173.930396 385.277111 161.280912 372.627628 161.280912 356.937403s12.649483-28.339708 28.339708-28.339707h197.404917c15.690224 0 28.339708 12.649483 28.339708 28.339707s-12.649483 28.339708-28.339708 28.339708H189.62062zM911.370947 259.998575L876.463238 224.847607c-13.014372-13.014372-31.502079-17.27141-48.043711-12.771113l29.191116 29.191115c0.486519 0.364889 0.851408 0.608148 1.337926 1.094667l35.029338 35.029338c9.608742 9.730372 9.608742 25.420596 0 35.029339-9.608742 9.730372-25.298967 9.730372-35.029338 0l-35.029339-35.029339-30.285782-30.285782c-4.378667 16.541632-0.12163 34.786079 12.771113 47.800451l35.029339 35.029339c19.339114 19.339114 50.719563 19.339114 70.058676 0 19.217484-19.217484 19.217484-50.597933-0.121629-69.937047z m-143.887873-92.073643c-2.310963-2.310963-5.473334-3.770519-9.000594-3.770519-6.93289 0-12.527854 5.594964-12.527854 12.527853 0 3.648889 1.581185 6.93289 4.013779 9.122224l83.194679 83.073049c2.310963 2.432593 5.594964 4.013778 9.243853 4.013778 6.93289 0 12.527854-5.594964 12.527853-12.527853 0-3.40563-1.337926-6.568001-3.648889-8.757335l-83.802827-83.681197zM741.454329 195.291602l-35.029338-35.029338c-9.608742-9.730372-9.608742-25.420596 0-35.029338 9.608742-9.730372 25.298967-9.730372 35.029338 0l35.029339 35.029338c0.243259 0.243259 0.364889 0.486519 0.608148 0.851407l29.556004 29.556005c4.378667-16.541632 0.243259-34.907709-12.771113-47.922081l-35.029338-35.029339c-19.339114-19.339114-50.719563-19.339114-70.058677 0-19.339114 19.339114-19.339114 50.719563 0 70.058677l35.029339 35.029339c13.014372 13.014372 31.380449 17.27141 47.922081 12.771112l-30.164153-30.042522c0.12163-0.12163 0-0.12163-0.12163-0.24326zM679.788098 212.319753l-52.179118 13.257631c-6.93289 1.702815-11.068298 8.757335-9.365483 15.690225 1.702815 6.93289 8.757335 11.068298 15.690224 9.365483l52.179119-13.257632c6.93289-1.702815 11.068298-8.757335 9.365483-15.690224-1.824445-6.93289-8.878964-11.068298-15.690225-9.365483zM758.60411 314.610286v53.760304c0 7.05452 5.838223 12.892743 12.892742 12.892743s12.892743-5.838223 12.892743-12.892743V314.610286c0-7.05452-5.838223-12.892743-12.892743-12.892742s-12.892743 5.716593-12.892742 12.892742zM716.885141 272.161539l-38.07008 38.07008c-4.986816 4.986816-4.986816 13.257632 0 18.244447s13.257632 4.986816 18.244447 0l38.07008-38.07008c4.986816-4.986816 4.986816-13.257632 0-18.244447s-13.257632-4.986816-18.244447 0z"  horiz-adv-x="1024" />

    
    <glyph glyph-name="wuqiatuiqia" unicode="&#58910;" d="M114.696757 131.192778V491.824682c0 14.352298 11.554816 25.907115 25.907115 25.907115h742.913885c14.352298 0 25.907115-11.554816 25.907115-25.907115v-62.396009c0-10.581779 6.446371-20.068892 16.176743-23.96104l3.892149-1.581186c17.028151-6.81126 35.515857 5.594964 35.637487 23.961041l0.973037 260.287445c0 21.163559-16.906521 37.82682-37.82682 37.82682H95.722532c-20.920299 0-37.82682-17.028151-37.82682-37.82682v-575.91638c0-21.041929 16.906521-37.82682 37.82682-37.82682v0.12163h433.001544c19.095855 0 32.840005 18.609336 27.001782 36.853783-3.770519 11.798076-14.717187 19.825632-27.001782 19.825632H114.696757z m0 537.96793h768.821c14.352298 0 25.907115-11.554816 25.907115-25.907115V600.439957c0-14.352298-11.554816-25.907115-25.907115-25.907115H140.603872c-14.352298 0-25.907115 11.554816-25.907115 25.907115v68.720751zM189.62062 385.277111C173.930396 385.277111 161.280912 372.627628 161.280912 356.937403s12.649483-28.339708 28.339708-28.339707h197.404917c15.690224 0 28.339708 12.649483 28.339708 28.339707s-12.649483 28.339708-28.339708 28.339708H189.62062zM799.83656 143.842262c-0.12163 0-0.12163 0 0 0zM620.797719 190.061527l114.210239-114.210238c9.852001-9.852001 25.785485-9.852001 35.515857 0 9.852001 9.852001 9.852001 25.785485 0 35.515857l-71.274973 71.274973H940.926951c13.86578 0 25.177337 11.311557 25.177337 25.177337 0 13.86578-11.311557 25.177337-25.177337 25.177337H699.248842l71.274973 71.274973c9.852001 9.852001 9.852001 25.785485 0 35.515857-4.865186 4.865186-11.311557 7.419408-17.757928 7.419409-6.446371 0-12.892743-2.432593-17.757929-7.419409l-114.210239-114.210239c-9.852001-9.730372-9.852001-25.663856 0-35.515857z"  horiz-adv-x="1024" />

    
    <glyph glyph-name="butiedengji" unicode="&#58911;" d="M608.775705 439.037415c15.568595 0.729778 27.245041 13.257632 26.515263 28.826227-0.729778 13.987409-11.676446 25.663856-26.515263 26.515263h-67.747713l74.680603 89.51942c10.095261 11.676446 9.365483 28.826226-1.581185 38.921487-11.676446 10.095261-28.826226 9.365483-38.921487-1.581185l-1.581186-1.581185-87.938235-105.817794-87.938235 105.088016c-10.095261 11.676446-27.245041 13.257632-38.921487 3.16237-11.676446-10.095261-13.257632-27.245041-3.162371-38.921487l74.680604-88.789642h-71.639862c-15.568595-0.729778-27.245041-13.257632-26.515264-28.826227 0.729778-13.987409 11.676446-25.663856 26.515264-26.515263h97.303717v-42.083858h-97.303717c-15.568595-0.729778-27.245041-13.257632-26.515264-28.826226 0.729778-13.987409 11.676446-25.663856 26.515264-26.515263h97.303717v-74.680603c0-15.568595 12.406224-27.245041 27.245041-27.974819 14.838817-0.729778 27.245041 12.406224 27.974819 27.245041v74.680603h97.303718c15.568595 0 27.974819 12.406224 27.974819 27.245041s-12.406224 27.974819-27.245041 27.974819h-97.303718v42.083858l96.817199 0.851407zM920.512491 350.734291l-67.747713 67.747714c-1.581185 1.581185-3.892149 2.310963-6.203112 2.310963-3.162371 0-6.203112-1.581185-8.514076-3.892148L534.459991 113.31322l-34.299561-115.183276 116.034684 33.448153 225.014847 225.014848 27.245041 27.245041 50.597933 50.597933c4.621927 5.351704 5.351704 11.676446 1.459556 16.298372zM596.004592 65.877658l-38.921487-10.946669 10.946668 38.921488 217.960328 217.960327 27.245041-27.245041L596.004592 65.877658z m245.935147 245.935146l-27.245041 27.245041 31.13719 31.13719 27.245041-27.245041-31.13719-31.13719zM457.346794 63.566694H301.295957l-55.21986 0.729778h-11.433187c-3.892149 0-7.05452 3.162371-7.054519 7.05452V705.041454c0 3.892149 3.162371 7.05452 7.054519 7.054519H827.100922c3.892149 0 7.05452-3.162371 7.05452-7.054519v-239.732035h55.219859v239.610405c0 34.299561-27.974819 62.274379-63.004157 62.27438H234.521281c-34.299561 0-62.274379-27.974819-63.004158-62.27438v-633.690462c0-34.299561 27.974819-62.274379 62.27438-62.274379h222.095736v54.490082h1.459555v0.121629z"  horiz-adv-x="1024" />

    
    <glyph glyph-name="butiezhongchuan" unicode="&#58913;" d="M623.169498 439.037415c15.568595 0.729778 27.245041 13.257632 26.515263 28.826227-0.729778 13.987409-11.676446 25.663856-26.515263 26.515263h-67.747714l74.680603 89.51942c10.095261 11.676446 9.365483 28.826226-1.581185 38.921487-11.676446 10.095261-28.826226 9.365483-38.921487-1.581185l-1.581185-1.581185-87.938235-105.817794-87.938235 105.088016c-10.095261 11.676446-27.245041 13.257632-38.921487 3.16237-11.676446-10.095261-13.257632-27.245041-3.162371-38.921487l74.680603-88.789642h-71.639862c-15.568595-0.729778-27.245041-13.257632-26.515263-28.826227 0.729778-13.987409 11.676446-25.663856 26.515263-26.515263h97.303718v-42.083858h-97.303718c-15.568595-0.729778-27.245041-13.257632-26.515263-28.826226 0.729778-13.987409 11.676446-25.663856 26.515263-26.515263h97.303718v-74.680603c0-15.568595 12.406224-27.245041 27.245041-27.974819 14.838817-0.729778 27.245041 12.406224 27.974818 27.245041v74.680603h97.303718c15.568595 0 27.974819 12.406224 27.974819 27.245041s-12.406224 27.974819-27.245041 27.974819h-97.303718v42.083858l96.8172 0.851407zM315.689749 63.566694l-55.219859 0.729778c-10.21689 0-18.487706 8.270816-18.487707 18.487707V711.974344H848.549234v-246.786554h55.21986V704.919824c0 34.299561-27.974819 62.274379-63.004158 62.27438H248.915073c-34.299561 0-62.274379-27.974819-63.004157-62.27438v-642.691056c0-29.312745 23.961041-53.273785 53.273785-53.273785h231.09633v54.490082H315.689749zM903.769094 252.457537c0 0.243259-0.12163 0.364889-0.12163 0.364888 0.12163-0.608148 0.12163-1.337926 0.12163-2.067704v-0.973037c-0.608148-9.973631-8.514075-17.636299-18.487707-17.636299h-92.560161c-10.21689 0-18.487706 8.149186-18.487707 18.487707 0 10.21689 8.392446 18.487706 18.487707 18.487706h53.152156c-23.352892 22.379855-54.854971 36.124005-89.64105 36.124005-71.639862 0-129.657204-58.017342-129.657204-129.657204 0-71.518233 58.017342-129.657204 129.657204-129.657203 39.286376 0 74.315714 17.39304 97.790236 44.881339 3.40563 5.230075 9.122224 8.757335 15.811854 8.757335 10.33852 0 18.487706-8.392446 18.487707-18.487706 0-4.865186-1.824445-9.122224-4.865186-12.406224l0.243259-0.12163c-30.529041-36.367265-76.261789-59.476897-127.46787-59.476898-92.073643 0-166.754246 74.680603-166.754247 166.754247 0 92.073643 74.680603 166.754246 166.754247 166.754246 42.448747 0 81.126975-15.933484 110.561349-42.205487v43.178524c0 10.21689 8.392446 18.487706 18.487706 18.487707 10.33852 0 18.487706-8.392446 18.487707-18.487707v-91.100605zM756.232332 4.089797c-94.627866 0-171.619432 76.991567-171.619433 171.619432s76.991567 171.619432 171.619433 171.619432c38.434969 0 75.653641-12.892743 105.696163-36.732153v32.718375c0 12.892743 10.46015 23.352892 23.352892 23.352892s23.352892-10.46015 23.352893-23.352892v-93.898088c-0.729778-12.649483-10.703409-22.136596-23.352893-22.136595h-92.560161c-12.892743 0-23.352892 10.46015-23.352892 23.352892s10.46015 23.352892 23.352892 23.352892h40.137783c-21.893337 17.14978-48.651859 26.393633-76.626677 26.393634-68.84238 0-124.792018-55.949638-124.792018-124.792019s55.949638-124.792018 124.792018-124.792018c36.245635 0 70.423566 15.568595 93.898087 42.935266 4.500297 6.689631 11.798076 10.581779 19.704003 10.581779 12.892743 0 23.352892-10.46015 23.352892-23.352892 0-4.135408-1.094667-8.149186-3.16237-11.676446l0.486518-0.364889-3.040741-3.64889c-32.840005-38.799857-80.640456-61.179713-131.238389-61.179712z m0 333.508493c-89.276161 0-161.88906-72.612899-161.889061-161.889061 0-89.276161 72.612899-161.88906 161.889061-161.88906 46.219266 0 89.884309 19.704003 120.65661 54.246822l-0.24326 0.24326 3.162371 3.648889c1.702815 1.824445 3.648889 4.986816 3.64889 9.243853 0 7.541038-6.081482 13.62252-13.622521 13.622521-4.743556 0-9.000594-2.432593-11.676446-6.446372l-0.364889-0.486518c-25.298967-29.556004-62.396009-46.584155-101.439126-46.584155-74.194085 0-134.52239 60.328305-134.52239 134.52239S682.159876 310.353249 756.353961 310.353249c34.786079 0 67.869343-13.257632 93.04668-37.461932l8.757335-8.392445h-65.193491c-7.541038 0-13.62252-6.081482-13.62252-13.622521s6.081482-13.62252 13.62252-13.62252H885.281387c7.297779 0 13.136002 5.473334 13.622521 12.892742v0.729778 0.729778l-6.081483 18.974225 6.081483-6.081482v79.05927c0 7.541038-6.081482 13.62252-13.622521 13.622521s-13.62252-6.081482-13.62252-13.622521v-54.003563l-8.149187 7.297779c-29.556004 26.150374-67.747714 40.745932-107.277348 40.745932z m143.522983-87.816606c0.12163-0.12163 0.243259-0.364889 0.364889-0.486518l0.486519 0.486518h-0.851408z m-0.121629 0.24326l1.216296-0.12163 2.432593 2.432593h-4.257038c-0.12163-0.486519 0-1.337926 0.608149-2.310963z"  horiz-adv-x="1024" />

    
    <glyph glyph-name="anpicishenhebutie" unicode="&#58915;" d="M600.363939 439.037415c15.568595 0.729778 27.245041 13.257632 26.515263 28.826227-0.729778 13.987409-11.676446 25.663856-26.515263 26.515263h-67.747714l74.680604 89.51942c10.095261 11.676446 9.365483 28.826226-1.581186 38.921487-11.676446 10.095261-28.826226 9.365483-38.921487-1.581185l-1.581185-1.581185-87.938235-105.817794-87.938235 105.088016c-10.095261 11.676446-27.245041 13.257632-38.921487 3.16237-11.676446-10.095261-13.257632-27.245041-3.162371-38.921487l74.680603-88.789642h-71.639862c-15.568595-0.729778-27.245041-13.257632-26.515263-28.826227 0.729778-13.987409 11.676446-25.663856 26.515263-26.515263h97.303718v-42.083858h-97.303718c-15.568595-0.729778-27.245041-13.257632-26.515263-28.826226 0.729778-13.987409 11.676446-25.663856 26.515263-26.515263h97.303718v-74.680603c0-15.568595 12.406224-27.245041 27.245041-27.974819 14.838817-0.729778 27.245041 12.406224 27.974819 27.245041v74.680603h97.303717c15.568595 0 27.974819 12.406224 27.974819 27.245041s-12.406224 27.974819-27.245041 27.974819h-97.303717v42.083858l96.817199 0.851407zM292.884191 63.566694l-55.21986 0.729778c-10.21689 0-18.487706 8.270816-18.487707 18.487707V711.974344H825.743675v-258.949519h55.21986V704.919824c0 34.299561-27.974819 62.274379-63.004157 62.27438H226.109514c-34.299561 0-62.274379-27.974819-63.004157-62.27438v-642.691056c0-29.312745 23.961041-53.273785 53.273785-53.273785h231.09633v54.490082H292.884191zM887.409906 125.354555h-36.245635l-70.788454 114.331869c29.191115 9.122224 50.233044 33.691412 50.233044 62.882527 0 36.853783-33.569783 66.896306-74.923863 66.896306s-74.923863-30.042523-74.923862-66.896306c0-29.069486 21.041929-53.638674 50.233044-62.882527l-70.910085-114.331869h-36.245634c-18.244447 0-33.083264-13.257632-33.083264-29.556004V48.241359c0-16.298373 14.838817-29.556004 33.083264-29.556004h263.693075c18.244447 0 33.083264 13.257632 33.083264 29.556004v47.557192c-0.12163 16.298373-14.960447 29.556004-33.204894 29.556004zM708.979214 302.447322c0 22.866374 20.920299 41.597339 46.584155 41.597339 25.663856 0 46.584155-18.609336 46.584154-41.597339 0-22.744744-20.67704-41.35408-46.097636-41.47571h-0.851407c-25.542226 0.243259-46.219266 18.730966-46.219266 41.47571z m42.205487-80.883716l8.392446 0.486519 56.679416-96.69557h-121.386388l56.314526 96.209051M892.153462 48.241359c0-2.310963-2.189334-4.257038-4.743556-4.257038H623.716831c-2.554223 0-4.743556 1.946074-4.743556 4.257038v47.557192c0 2.310963 2.189334 4.257038 4.743556 4.257038h263.693075c2.554223 0 4.743556-1.946074 4.743556-4.257038V48.241359M887.409906 7.738686H623.716831c-24.325929 0-44.029932 18.122817-44.029932 40.502673v47.557192c0 22.258225 19.704003 40.502673 44.029932 40.502672h30.164152l60.814824 98.033496c-27.366671 13.500891-45.002969 39.408006-45.002969 68.112603 0 42.935265 38.556598 77.842974 85.870531 77.842974 47.313933 0 85.870531-34.907709 85.870531-77.842974 0-28.704597-17.636299-54.733341-45.00297-68.112603l60.814824-98.033496h30.164152c11.554816 0 22.379855-4.013778 30.650671-11.433186 8.635705-7.662668 13.379261-18.001188 13.379261-29.069486V48.241359c0-22.258225-19.704003-40.502673-44.029932-40.502673z m-263.693075 106.669201c-12.162965 0-22.136596-8.270816-22.136596-18.609336V48.241359c0-10.21689 9.973631-18.609336 22.136596-18.609336h263.693075c12.162965 0 22.136596 8.392446 22.136596 18.609336v47.557192c0 4.743556-2.189334 9.243853-6.081482 12.649483-4.257038 3.770519-9.973631 5.838223-16.055114 5.838223h-42.448747l-81.491863 131.481649 13.50089 4.257038c25.420596 8.027557 42.570377 29.069486 42.570377 52.422378 0 30.89393-28.704597 55.949638-63.977194 55.949637s-63.977194-25.055707-63.977195-55.949637c0-23.352892 17.14978-44.394821 42.570377-52.422378l13.500891-4.257038-81.491864-131.481649h-42.448747z m263.693075-81.370234H623.716831c-8.635705 0-15.690224 6.81126-15.690225 15.203706v47.557192c0 8.392446 7.05452 15.203706 15.690225 15.203706h263.693075c8.635705 0 15.690224-6.81126 15.690225-15.203706V37.294691h-4.865186c-2.797482-2.554223-6.689631-4.257038-10.825039-4.257038z m-6.203112 15.811854v-0.608148 0.608148z m-251.286851 6.081482h251.286851v34.056302H629.919943v-34.056302z m205.432474 59.476898H675.77432l68.96401 117.737498 20.920299 1.216297 69.693788-118.953795z m-121.386388 21.893336h83.194679l-41.597339 70.910085-41.59734-70.910085z m41.110821 113.723721c-31.502079 0.243259-57.044305 23.839411-57.044305 52.422378 0 28.947856 25.785485 52.544008 57.530824 52.544007 31.745338 0 57.530823-23.596152 57.530823-52.544007 0-28.704597-25.542226-52.179119-57.044305-52.422378h-0.973037z m0.486519 83.073049c-19.582373 0-35.637487-13.74415-35.637487-30.650671 0-16.663262 15.811854-30.407412 35.272598-30.529042h0.729778c19.339114 0.12163 35.150968 13.86578 35.150968 30.529042 0.12163 16.906521-15.933484 30.650671-35.515857 30.650671z"  horiz-adv-x="1024" />

    
    <glyph glyph-name="tianjia" unicode="&#58916;" d="M512.548-62.039c-246.038 0-445.491 199.453-445.491 445.49S266.511 828.942 512.548 828.942s445.49-199.453 445.49-445.491-199.452-445.49-445.49-445.49z m37.125 482.615V568.981c0 20.832-16.621 37.216-37.124 37.216-20.646 0-37.124-16.662-37.124-37.216v-148.405H327.019c-20.832 0-37.216-16.621-37.216-37.124 0-20.646 16.662-37.124 37.216-37.124h148.405v-148.405c0-20.832 16.621-37.216 37.124-37.216 20.646 0 37.124 16.662 37.124 37.216V346.327h148.405c20.832 0 37.216 16.621 37.216 37.124 0 20.646-16.662 37.124-37.216 37.124H549.673z"  horiz-adv-x="1024" />

    
    <glyph glyph-name="guanbi" unicode="&#58917;" d="M553.568 384L823.68 654.112c11.488 11.488 11.488 30.08 0 41.568s-30.08 11.488-41.568 0L512 425.568l-270.112 270.08c-11.488 11.488-30.08 11.488-41.568 0s-11.488-30.08 0-41.568L470.432 384 200.32 113.888c-11.488-11.488-11.488-30.08 0-41.568s30.08-11.488 41.568 0L512 342.432 782.112 72.32c11.488-11.488 30.08-11.488 41.568 0s11.488 30.08 0 41.568L553.568 384z"  horiz-adv-x="1024" />

    
    <glyph glyph-name="huanka" unicode="&#58918;" d="M125.217722 125.47618499999999V476.377717c0 13.987409 11.189928 25.177337 25.177337 25.177337h722.844993c13.987409 0 25.177337-11.189928 25.177337-25.177337v-60.814824c0-10.33852 6.324742-19.582373 15.690225-23.352892l3.770519-1.581185c16.541632-6.568001 34.54282 5.473334 34.664449 23.352892l0.973037 253.232926c0 20.55541-16.420002 36.853783-36.853783 36.853783H106.608386c-20.312151 0-36.853783-16.541632-36.853783-36.853783v-560.347785c0-20.433781 16.420002-36.853783 36.853783-36.853783v0.121629h421.325098c18.609336 0 31.988597 18.122817 26.272004 35.880746-3.648889 11.433187-14.352298 19.339114-26.272004 19.339114H125.217722z m0 523.372372h748.14396c13.987409 0 25.177337-11.189928 25.177337-25.177337v-41.597339c0-13.987409-11.189928-25.177337-25.177337-25.177337H150.395059c-13.987409 0-25.177337 11.189928-25.177337 25.177337v66.774676z m0 0M197.830621 372.62762799999996c-15.325336 0-27.60993-12.284594-27.60993-27.60993s12.284594-27.60993 27.60993-27.60993h192.053213c15.325336 0 27.60993 12.284594 27.60993 27.60993s-12.284594 27.60993-27.60993 27.60993H197.830621zM753.43485 349.882884c0.12163 0 0.12163 0 0 0z m173.565506-86.843568c9.608742 9.487112 10.21689 32.231857 0.608149 41.840598l-111.169498 111.169498c-9.608742 9.608742-25.055707 9.608742-34.54282 0-9.608742-9.608742-9.608742-25.055707 0-34.54282l69.328899-69.328899H616.114978c-13.500891 0-24.447559-11.068298-24.447559-24.447559 0-13.500891 10.946668-24.447559 24.447559-24.447559M772.652334 143.842262zM599.208457 230.56420000000003c-9.608742-9.487112-10.21689-32.231857-0.608148-41.840599l111.169497-111.169497c9.608742-9.608742 25.055707-9.608742 34.54282 0 9.608742 9.608742 9.608742 25.055707 0 34.54282l-69.328899 69.328899h235.110108c13.500891 0 24.447559 11.068298 24.447559 24.447559 0 13.500891-10.946668 24.447559-24.447559 24.447559m-311.615156-41.47571"  horiz-adv-x="1024" />

    
    <glyph glyph-name="shangchuanfujian" unicode="&#58923;" d="M660.26654 177.412044c-8.514075-8.635705-17.14978-8.635705-25.785485 0-8.514075 8.514075-8.514075 17.14978 0 25.785485l137.563131 137.441502c2.919112 1.337926 4.986816 2.189334 6.446371 2.189333 1.337926 1.337926 3.52726 2.067704 6.324742 2.067704s4.986816-0.851408 6.446371-2.189333c1.337926 0 2.919112-0.851408 4.257038-2.189334h2.067704l137.563131-137.319872c8.635705-8.514075 8.635705-17.14978 0-25.785485-8.514075-8.635705-17.14978-8.635705-25.785486 0l-107.398978 109.466683v-280.842856c0-11.433187-5.716593-17.14978-17.14978-17.14978s-17.14978 5.716593-17.149781 17.14978V286.878727l-107.398978-109.466683z m0 0M641.170685 6.035871c0 9.487112-7.662668 17.028151-17.02815 17.028151H447.657917c-0.486519 0-0.973037 0.12163-1.581186 0.12163H168.152987c-0.12163 0-0.12163 0-0.121629 0.121629V572.830027c0 0.12163 0 0.12163 0.121629 0.12163H923.837986c0.12163 0 0.12163 0 0.121629-0.12163V360.829552c0-9.487112 7.662668-17.14978 17.14978-17.14978s17.14978 7.662668 17.149781 17.14978V590.223067 641.794037c0 20.068892-6.446371 36.610524-19.339114 49.381637-12.892743 12.892743-29.434375 19.339114-49.381637 19.339114h-412.324504c-22.866374 0-41.47571 9.243853-55.828008 27.853189-20.068892 27.123411-47.192303 40.745932-81.613493 40.745932H133.731797c-20.068892 0-36.610524-6.446371-49.381637-19.339114-12.892743-13.014372-19.339114-29.434375-19.339114-49.381637v-652.786316c0-20.068892 6.446371-36.610524 19.339114-49.260007 13.014372-12.892743 29.434375-19.339114 49.381637-19.339114h275.97767c0.486519 0 0.973037-0.12163 1.581185-0.12163h212.730253c9.487112 0 17.14978 7.662668 17.14978 17.14978zM133.731797 590.101437v-566.794156c0-0.12163 0-0.12163-0.12163-0.121629-22.866374 0-34.299561 11.554816-34.29956 34.42119V710.271529c0 19.095855 15.446965 34.54282 34.54282 34.542819h206.040622c22.866374 0 41.47571-9.365483 55.828008-27.853189 20.068892-27.123411 47.192303-40.745932 81.613494-40.745932h412.324504c22.866374 0 34.42119-11.554816 34.42119-34.42119v-34.29956c0-0.12163 0-0.12163-0.12163-0.12163H150.881577c-11.433187-0.12163-17.14978-5.838223-17.14978-17.27141z m0 0"  horiz-adv-x="1024" />

    
    <glyph glyph-name="xiazaifujian1" unicode="&#58924;" d="M916.661836 156.370115c8.514075 8.635705 17.14978 8.635705 25.785486 0 8.514075-8.514075 8.514075-17.14978 0-25.785485l-137.563131-137.441501c-2.919112-1.337926-4.986816-2.189334-6.446372-2.189334-1.337926-1.337926-3.52726-2.067704-6.324741-2.067704s-4.986816 0.851408-6.446372 2.189334c-1.337926 0-2.919112 0.851408-4.257037 2.189333h-2.067704L641.657204 130.58463c-8.635705 8.514075-8.635705 17.14978 0 25.785485 8.514075 8.635705 17.14978 8.635705 25.785485 0l107.398979-109.466682V327.746288c0 11.433187 5.716593 17.14978 17.14978 17.14978s17.14978-5.716593 17.14978-17.14978v-280.842855l107.520608 109.466682z m0 0M641.170685 6.035871c0 9.487112-7.662668 17.028151-17.02815 17.028151H447.657917c-0.486519 0-0.973037 0.12163-1.581186 0.12163H168.152987c-0.12163 0-0.12163 0-0.121629 0.121629V572.830027c0 0.12163 0 0.12163 0.121629 0.12163H923.837986c0.12163 0 0.12163 0 0.121629-0.12163V360.829552c0-9.487112 7.662668-17.14978 17.14978-17.14978s17.14978 7.662668 17.149781 17.14978V590.223067 641.794037c0 20.068892-6.446371 36.610524-19.339114 49.381637-12.892743 12.892743-29.434375 19.339114-49.381637 19.339114h-412.324504c-22.866374 0-41.47571 9.243853-55.828008 27.853189-20.068892 27.123411-47.192303 40.745932-81.613493 40.745932H133.731797c-20.068892 0-36.610524-6.446371-49.381637-19.339114-12.892743-13.014372-19.339114-29.434375-19.339114-49.381637v-652.786316c0-20.068892 6.446371-36.610524 19.339114-49.260007 13.014372-12.892743 29.434375-19.339114 49.381637-19.339114h275.97767c0.486519 0 0.973037-0.12163 1.581185-0.12163h212.730253c9.487112 0 17.14978 7.662668 17.14978 17.14978zM133.731797 590.101437v-566.794156c0-0.12163 0-0.12163-0.12163-0.121629-22.866374 0-34.299561 11.554816-34.29956 34.42119V710.271529c0 19.095855 15.446965 34.54282 34.54282 34.542819h206.040622c22.866374 0 41.47571-9.365483 55.828008-27.853189 20.068892-27.123411 47.192303-40.745932 81.613494-40.745932h412.324504c22.866374 0 34.42119-11.554816 34.42119-34.42119v-34.29956c0-0.12163 0-0.12163-0.12163-0.12163H150.881577c-11.433187-0.12163-17.14978-5.838223-17.14978-17.27141z m0 0"  horiz-adv-x="1024" />

    
    <glyph glyph-name="fasongtongzhi" unicode="&#58926;" d="M846.48153 648.240409c28.218078 0 51.206081-22.988003 51.206081-51.206082v-441.880508c0-28.218078-22.988003-51.206081-51.206081-51.206082H177.51847c-28.218078 0-51.206081 22.988003-51.206081 51.206082V597.0343270000001c0 28.218078 22.988003 51.206081 51.206081 51.206082h668.96306m0 53.517044H177.51847c-57.895712 0-104.723126-46.827414-104.723126-104.723126v-441.880508c0-57.895712 46.827414-104.723126 104.723126-104.723127h668.96306c57.895712 0 104.723126 46.827414 104.723126 104.723127V597.0343270000001c0 57.895712-46.827414 104.723126-104.723126 104.723126zM527.568595 256.83620399999995c-35.759116 0-71.639862 13.62252-98.884903 40.867561L98.33757 628.049887l37.82682 37.82682 330.224492-330.224492c33.691412-33.691412 88.424754-33.691412 122.116166 0l306.506711 306.506711 37.82682-37.82682-306.506711-306.506711c-27.123411-27.245041-63.004157-40.989191-98.763273-40.989191zM105.44439 123.78309999999999l255.433206 255.43199 37.841416-37.841416-255.433206-255.433206zM616.804618 351.61488999999995l37.842632 37.841416 255.43199-255.433206-37.841416-37.841416z"  horiz-adv-x="1024" />

    
    <glyph glyph-name="suoxiao" unicode="&#58928;" d="M462.367484 809.034802c-213.095142 0-385.809241-172.714099-385.809241-385.809241s172.714099-385.809241 385.809241-385.809241 385.809241 172.714099 385.809241 385.809241-172.714099 385.809241-385.809241 385.809241z m0-703.26262c-175.389951 0-317.453379 142.185058-317.453379 317.453379s142.185058 317.453379 317.453379 317.453379 317.453379-142.185058 317.453379-317.453379-142.185058-317.453379-317.453379-317.453379z m0 0M932.830959-25.587837c-19.582373-19.582373-51.206081-19.582373-70.788454 0L711.100112 125.476185c-19.582373 19.582373-19.582373 51.206081 0 70.788455s51.206081 19.582373 70.788455 0L932.952589 45.200618c19.339114-19.460744 19.339114-51.206081-0.12163-70.788455zM663.78618 383.209407H270.435901c-9.608742 0-17.514669 7.905927-17.51467 17.514669v33.934672c0 9.608742 7.905927 17.514669 17.51467 17.514669h393.228649c9.608742 0 17.514669-7.905927 17.514669-17.514669v-33.934672c0-9.730372-7.905927-17.514669-17.393039-17.514669z m0 0"  horiz-adv-x="1024" />

    
    <glyph glyph-name="fangda" unicode="&#58929;" d="M462.367484 809.034802c-213.095142 0-385.809241-172.714099-385.809241-385.809241s172.714099-385.809241 385.809241-385.809241 385.809241 172.714099 385.809241 385.809241-172.714099 385.809241-385.809241 385.809241z m0-703.26262c-175.389951 0-317.453379 142.185058-317.453379 317.453379s142.185058 317.453379 317.453379 317.453379 317.453379-142.185058 317.453379-317.453379-142.185058-317.453379-317.453379-317.453379z m0 0M932.830959-25.587837c-19.582373-19.582373-51.206081-19.582373-70.788454 0L711.100112 125.476185c-19.582373 19.582373-19.582373 51.206081 0 70.788455s51.206081 19.582373 70.788455 0L932.952589 45.200618c19.339114-19.460744 19.339114-51.206081-0.12163-70.788455zM663.78618 383.209407H270.435901c-9.608742 0-17.514669 7.905927-17.51467 17.514669v33.934672c0 9.608742 7.905927 17.514669 17.51467 17.514669h393.228649c9.608742 0 17.514669-7.905927 17.514669-17.514669v-33.934672c0-9.730372-7.905927-17.514669-17.393039-17.514669z m0 0M501.53223 611.386625v-387.390426c0-11.189928-9.122224-20.433781-20.43378-20.433781h-28.096449c-11.189928 0-20.433781 9.122224-20.433781 20.433781V611.386625c0 11.189928 9.122224 20.433781 20.433781 20.433781h28.096449c11.311557 0 20.433781-9.243853 20.43378-20.433781z m0 0"  horiz-adv-x="1024" />

    
    <glyph glyph-name="chongzhi" unicode="&#58930;" d="M638.616463 430.888229H384.045611c-12.406224 0-22.866374 10.46015-22.866374 22.866374 0 12.406224 10.46015 22.866374 22.866374 22.866373h254.570852c12.406224 0 22.866374-10.46015 22.866373-22.866373 0-12.892743-9.973631-22.866374-22.866373-22.866374z m0 0M511.635111 433.442452c-5.473334 0-10.946668 1.946074-14.960447 5.473334l-114.575127 99.614681c-9.487112 8.514075-10.46015 22.866374-1.946075 32.353486 8.514075 9.487112 22.866374 10.46015 32.353487 1.946074l99.128162-86.721938 99.128163 86.721938c9.487112 8.514075 23.961041 7.419408 32.353486-1.946074 8.514075-9.487112 7.419408-23.961041-1.946075-32.353486l-114.575127-99.614681c-4.013778-3.52726-9.487112-5.473334-14.960447-5.473334z m126.981352-113.602091H384.045611c-12.406224 0-22.866374 10.46015-22.866374 22.866374 0 12.406224 10.46015 22.866374 22.866374 22.866373h254.570852c12.406224 0 22.866374-10.46015 22.866373-22.866373 0-12.892743-9.973631-22.866374-22.866373-22.866374z m0 0M511.635111 187.264046c-12.406224 0-22.866374 10.46015-22.866374 22.866373V453.876232c0 12.406224 10.46015 22.866374 22.866374 22.866374 12.406224 0 22.866374-10.46015 22.866374-22.866374v-243.624183c0-12.527854-10.46015-22.988003-22.866374-22.988003z m0 0M511.635111-51.373322c-239.610405 0-434.4611 194.850695-434.4611 434.4611S272.024706 817.548878 511.635111 817.548878c29.434375 0 58.74712-3.040741 87.694976-9.000594 12.406224-2.432593 20.433781-14.473928 17.879558-26.880152-2.554223-12.406224-14.473928-20.433781-26.880152-17.879559-25.420596 5.473334-51.81423 8.027557-78.207863 8.027557C297.810191 771.694501 123.514907 597.277586 123.514907 383.087778c0-214.189809 174.416914-388.606723 388.606723-388.606723S900.728353 168.897969 900.728353 383.087778c0 49.868155-9.487112 98.641644-27.85319 144.496021-4.500297 11.919705 0.973037 24.934078 12.892743 29.920893 11.433187 4.500297 24.934078-0.973037 29.920893-12.892743 20.433781-51.327711 30.89393-105.574534 30.893931-161.402542-0.608148-239.245516-195.337213-434.58273-434.947619-434.582729z m0 0M878.713386 674.025894H696.877064c-12.406224 0-22.866374 10.46015-22.866374 22.866373 0 12.406224 10.46015 22.866374 22.866374 22.866374h181.836322c12.406224 0 22.866374-10.46015 22.866374-22.866374 0.12163-12.406224-10.33852-22.866374-22.866374-22.866373z m0 0M787.612781 582.925288c-12.406224 0-22.866374 10.46015-22.866374 22.866374V787.627984c0 12.406224 10.46015 22.866374 22.866374 22.866374 12.406224 0 22.866374-10.46015 22.866373-22.866374v-181.836322c0-12.406224-9.973631-22.866374-22.866373-22.866374z m0 0"  horiz-adv-x="1024" />

    
    <glyph glyph-name="tuikuan" unicode="&#58931;" d="M638.616463 430.888229H384.045611c-12.406224 0-22.866374 10.46015-22.866374 22.866374 0 12.406224 10.46015 22.866374 22.866374 22.866373h254.570852c12.406224 0 22.866374-10.46015 22.866373-22.866373 0-12.892743-9.973631-22.866374-22.866373-22.866374z m0 0M511.635111 433.442452c-5.473334 0-10.946668 1.946074-14.960447 5.473334l-114.575127 99.614681c-9.487112 8.514075-10.46015 22.866374-1.946075 32.353486 8.514075 9.487112 22.866374 10.46015 32.353487 1.946074l99.128162-86.721938 99.128163 86.721938c9.487112 8.514075 23.961041 7.419408 32.353486-1.946074 8.514075-9.487112 7.419408-23.961041-1.946075-32.353486l-114.575127-99.614681c-4.013778-3.52726-9.487112-5.473334-14.960447-5.473334z m126.981352-113.602091H384.045611c-12.406224 0-22.866374 10.46015-22.866374 22.866374 0 12.406224 10.46015 22.866374 22.866374 22.866373h254.570852c12.406224 0 22.866374-10.46015 22.866373-22.866373 0-12.892743-9.973631-22.866374-22.866373-22.866374z m0 0M511.635111 187.264046c-12.406224 0-22.866374 10.46015-22.866374 22.866373V453.876232c0 12.406224 10.46015 22.866374 22.866374 22.866374 12.406224 0 22.866374-10.46015 22.866374-22.866374v-243.624183c0-12.527854-10.46015-22.988003-22.866374-22.988003z m0 0M511.635111-51.373322c-239.610405 0-434.4611 194.850695-434.4611 434.4611S272.024706 817.548878 511.635111 817.548878c29.434375 0 58.74712-3.040741 87.694976-9.000594 12.406224-2.432593 20.433781-14.473928 17.879558-26.880152-2.554223-12.406224-14.473928-20.433781-26.880152-17.879559-25.420596 5.473334-51.81423 8.027557-78.207863 8.027557C297.810191 771.694501 123.514907 597.277586 123.514907 383.087778c0-214.189809 174.416914-388.606723 388.606723-388.606723S900.728353 168.897969 900.728353 383.087778c0 49.868155-9.487112 98.641644-27.85319 144.496021-4.500297 11.919705 0.973037 24.934078 12.892743 29.920893 11.433187 4.500297 24.934078-0.973037 29.920893-12.892743 20.433781-51.327711 30.89393-105.574534 30.893931-161.402542-0.608148-239.245516-195.337213-434.58273-434.947619-434.582729z m0 0M878.713386 674.025894H696.877064c-12.406224 0-22.866374 10.46015-22.866374 22.866373 0 12.406224 10.46015 22.866374 22.866374 22.866374h181.836322c12.406224 0 22.866374-10.46015 22.866374-22.866374 0.12163-12.406224-10.33852-22.866374-22.866374-22.866373z m0 0"  horiz-adv-x="1024" />

    
    <glyph glyph-name="huifushiyong" unicode="&#58932;" d="M977.909145 7.130538c-9.487112 0-18.122817 5.108445-22.623115 13.257632-122.116166 214.068179-300.790118 232.799145-504.641406 234.501959h-5.108445v-198.256325c0-10.33852-6.081482-19.704003-15.325336-23.717781-3.40563-1.581185-7.05452-2.310963-10.825039-2.310963-6.324742 0-12.406224 2.310963-17.271409 6.568001l-373.646277 326.940492c-5.594964 4.865186-8.878964 11.919705-9.000594 19.217484-0.243259 7.419408 2.797482 14.473928 8.270816 19.582373l373.646277 350.293384c4.865186 4.621927 11.189928 7.05452 17.879558 7.05452 3.648889 0 7.05452-0.729778 10.46015-2.189334 9.608742-4.135408 15.811854-13.62252 15.811854-24.08267v-169.06521l4.743556-0.243259c96.817199-4.865186 185.120323-32.596745 262.598408-82.464901 68.355862-44.029932 128.319278-105.209645 178.309063-181.714693 80.883715-123.818981 109.223423-248.002851 112.142535-261.86863 2.675852-12.892743-4.257038-25.420596-16.298373-29.920894-2.919112-0.973037-6.081482-1.581185-9.122223-1.581185zM84.782645 384.304074l308.452785-270.017817V281.162133c0 14.352298 11.798076 26.150374 26.150374 26.150374 132.454686 0 239.610405-6.93289 332.535456-40.624302 48.895118-17.757928 91.465495-42.083858 130.143723-74.194085l7.662667 6.081483c-13.62252 27.123411-27.73156 51.81423-43.056895 75.045492C741.947629 432.591044 598.181386 513.109871 419.385804 513.109871c-14.352298 0-26.150374 11.798076-26.150374 26.150374V673.539375L84.782645 384.304074z m0 0"  horiz-adv-x="1024" />

    
    <glyph glyph-name="zantingshiyong" unicode="&#58933;" d="M512 833.55C263.713 833.55 62.45 632.288 62.45 384S263.712-65.55 512-65.55 961.55 135.712 961.55 384 760.288 833.55 512 833.55z m0-856.012c-224.494 0-406.462 181.969-406.462 406.462S287.507 790.462 512 790.462 918.462 608.493 918.462 384 736.493-22.462 512-22.462zM428.3 157.425h-3.15c-14.625 0-26.606 11.981-26.606 26.606V584.193c0 14.625 11.981 26.606 26.606 26.606h3.206c14.625 0 26.606-11.981 26.606-26.606v-400.162c-0.056-14.625-11.981-26.606-26.663-26.606zM597.444 159.506H594.8c-14.625 0-26.606 11.981-26.606 26.606V581.887c0 14.625 11.981 26.606 26.606 26.606h2.644c14.625 0 26.606-11.981 26.606-26.606v-395.775c0-14.625-11.981-26.606-26.606-26.606z"  horiz-adv-x="1024" />

    
    <glyph glyph-name="shanchuditu" unicode="&#58934;" d="M512.790593-84.091697c-31.502079 0-363.064497 372.916498-363.064497 573.362157S312.344934 852.213327 512.790593 852.213327s363.064497-162.497209 363.064497-363.064497-333.021974-573.240527-363.064497-573.240527z m0 889.47761c-174.660173 0-316.115453-141.576909-316.115453-316.115453 0-174.660173 307.358119-526.534743 316.115453-526.534743 4.135408 0 316.115453 351.874569 316.115453 526.534743 0.12163 174.538544-141.45528 316.115453-316.115453 316.115453z m0-234.258701M676.139209 454.241121H349.441976c-18.974225 0-34.42119 15.568595-34.42119 34.42119 0 18.974225 15.568595 34.42119 34.42119 34.421191h326.697233c18.974225 0 34.42119-15.568595 34.42119-34.421191 0.12163-18.974225-15.446965-34.42119-34.42119-34.42119z"  horiz-adv-x="1024" />

    
    <glyph glyph-name="tianjiaditu" unicode="&#58935;" d="M512.790593-84.091697c-31.502079 0-363.064497 372.916498-363.064497 573.362157S312.344934 852.213327 512.790593 852.213327s363.064497-162.497209 363.064497-363.064497-333.021974-573.240527-363.064497-573.240527z m0 889.47761c-174.660173 0-316.115453-141.576909-316.115453-316.115453 0-174.660173 307.358119-526.534743 316.115453-526.534743 4.135408 0 316.115453 351.874569 316.115453 526.534743 0.12163 174.538544-141.45528 316.115453-316.115453 316.115453z m0-234.258701M676.139209 454.241121H349.441976c-18.974225 0-34.42119 15.568595-34.42119 34.42119 0 18.974225 15.568595 34.42119 34.42119 34.421191h326.697233c18.974225 0 34.42119-15.568595 34.42119-34.421191 0.12163-18.974225-15.446965-34.42119-34.42119-34.42119zM478.369403 330.178881V656.876114c0 18.974225 15.568595 34.42119 34.42119 34.42119 18.974225 0 34.42119-15.568595 34.42119-34.42119v-326.697233c0-18.974225-15.568595-34.42119-34.42119-34.42119-18.974225-0.12163-34.42119 15.446965-34.42119 34.42119z"  horiz-adv-x="1024" />

    
    <glyph glyph-name="baocunweizhixinxi" unicode="&#58936;" d="M800.576-43.56H223.424C144.344-43.56 80 20.736 80 99.84V668.136c0 79.104 64.344 143.448 143.424 143.448H800.6C879.656 811.56 944 747.24 944 668.136V99.84c0-79.104-64.32-143.4-143.424-143.4zM223.424 755.592c-48.24 0-87.48-39.216-87.48-87.48V99.84c0-48.24 39.24-87.504 87.48-87.504H800.6c48.24 0 87.48 39.264 87.48 87.504V668.136c0 48.264-39.24 87.48-87.48 87.48l-577.176-0.024zM788.6 382.656H235.4V811.56h553.224v-428.904h-0.024z m-497.28 55.968h441.36V755.592H291.32v-316.968z m303.048 234.648h55.92v-186.504h-55.92V673.272z m0 0z"  horiz-adv-x="1024" />

    
    <glyph glyph-name="xiazai" unicode="&#58901;" d="M265.309091 384c-9.309091-9.309091-9.309091-23.272727 0-32.581818l230.4-230.4c9.309091-9.309091 23.272727-9.309091 32.581818 0l230.4 230.4c9.309091 9.309091 9.309091 23.272727 0 32.581818-9.309091 9.309091-23.272727 9.309091-32.581818 0L535.272727 193.163636V872.727273c0 13.963636-9.309091 23.272727-23.272727 23.272727s-23.272727-9.309091-23.272727-23.272727v-679.563637L297.890909 384c-9.309091 9.309091-23.272727 9.309091-32.581818 0zM930.909091 896H674.909091c-13.963636 0-23.272727-9.309091-23.272727-23.272727s9.309091-23.272727 23.272727-23.272728h256c25.6 0 46.545455-20.945455 46.545454-46.545454v-837.818182c0-25.6-20.945455-46.545455-46.545454-46.545454H93.090909c-25.6 0-46.545455 20.945455-46.545454 46.545454V802.909091c0 25.6 20.945455 46.545455 46.545454 46.545454h256c13.963636 0 23.272727 9.309091 23.272727 23.272728s-9.309091 23.272727-23.272727 23.272727H93.090909C41.890909 896 0 854.109091 0 802.909091v-837.818182c0-51.2 41.890909-93.090909 93.090909-93.090909h837.818182c51.2 0 93.090909 41.890909 93.090909 93.090909V802.909091c0 51.2-41.890909 93.090909-93.090909 93.090909z"  horiz-adv-x="1024" />

    
    <glyph glyph-name="xiaoxi" unicode="&#58906;" d="M244.363636 430.545455C211.781818 430.545455 186.181818 404.945455 186.181818 372.363636S211.781818 314.181818 244.363636 314.181818s58.181818 25.6 58.181819 58.181818-25.6 58.181818-58.181819 58.181819zM512 430.545455c-32.581818 0-58.181818-25.6-58.181818-58.181819S479.418182 314.181818 512 314.181818s58.181818 25.6 58.181818 58.181818S544.581818 430.545455 512 430.545455z m0 465.454545C228.072727 896 0 667.927273 0 384c0-274.618182 216.436364-500.363636 491.054545-512H791.272727c23.272727 0 46.545455 23.272727 46.545455 46.545455v69.818181c114.036364 93.090909 186.181818 235.054545 186.181818 395.636364C1024 667.927273 795.927273 896 512 896z m281.6-882.036364l-2.327273-2.327272v-48.872728c0-46.545455-4.654545-46.545455-46.545454-46.545454H512C256-81.454545 46.545455 128 46.545455 384S256 849.454545 512 849.454545s465.454545-209.454545 465.454545-465.454545c0-151.272727-72.145455-283.927273-183.854545-370.036364zM779.636364 430.545455c-32.581818 0-58.181818-25.6-58.181819-58.181819s25.6-58.181818 58.181819-58.181818 58.181818 25.6 58.181818 58.181818-25.6 58.181818-58.181818 58.181819z"  horiz-adv-x="1024" />

    
    <glyph glyph-name="saoyisao" unicode="&#58925;" d="M23.272727 546.909091c13.963636 0 23.272727 9.309091 23.272728 23.272727V802.909091c0 25.6 20.945455 46.545455 46.545454 46.545454h256c13.963636 0 23.272727 9.309091 23.272727 23.272728s-9.309091 23.272727-23.272727 23.272727H93.090909C41.890909 896 0 854.109091 0 802.909091v-232.727273c0-13.963636 9.309091-23.272727 23.272727-23.272727zM674.909091 849.454545h256c25.6 0 46.545455-20.945455 46.545454-46.545454v-232.727273c0-13.963636 9.309091-23.272727 23.272728-23.272727s23.272727 9.309091 23.272727 23.272727V802.909091c0 51.2-41.890909 93.090909-93.090909 93.090909H674.909091c-13.963636 0-23.272727-9.309091-23.272727-23.272727s9.309091-23.272727 23.272727-23.272728z m325.818182-628.363636c-13.963636 0-23.272727-9.309091-23.272728-23.272727v-232.727273c0-25.6-20.945455-46.545455-46.545454-46.545454H674.909091c-13.963636 0-23.272727-9.309091-23.272727-23.272728s9.309091-23.272727 23.272727-23.272727h256c51.2 0 93.090909 41.890909 93.090909 93.090909V197.818182c0 13.963636-9.309091 23.272727-23.272727 23.272727zM349.090909-81.454545H93.090909c-25.6 0-46.545455 20.945455-46.545454 46.545454V197.818182c0 13.963636-9.309091 23.272727-23.272728 23.272727s-23.272727-9.309091-23.272727-23.272727v-232.727273c0-51.2 41.890909-93.090909 93.090909-93.090909h256c13.963636 0 23.272727 9.309091 23.272727 23.272727s-9.309091 23.272727-23.272727 23.272728z m651.636364 488.727272H23.272727c-13.963636 0-23.272727-9.309091-23.272727-23.272727s9.309091-23.272727 23.272727-23.272727h977.454546c13.963636 0 23.272727 9.309091 23.272727 23.272727s-9.309091 23.272727-23.272727 23.272727z"  horiz-adv-x="1024" />

    
    <glyph glyph-name="forward-r" unicode="&#59724;" d="M614.826667 361.6l1.706666 1.706667-150.869333 150.826666L405.333333 453.802667l92.16-92.202667-92.16-92.16 60.330667-60.373333 150.869333 150.869333-1.706666 1.664zM128 362.666667a362.666667 362.666667 0 1 1 725.333333 0 362.666667 362.666667 0 0 1-725.333333 0z m85.333333 0a277.333333 277.333333 0 1 0 554.666667 0 277.333333 277.333333 0 0 0-554.666667 0z"  horiz-adv-x="1024" />

    
    <glyph glyph-name="forward-sorting" unicode="&#59725;" d="M490.666667 263.936l-174.336-174.293333L256 149.973333 490.026667 384l0.64-0.597333 0.597333 0.597333L725.333333 149.973333 664.96 89.6 490.666667 263.936z m0 256l-174.336-174.293333L256 405.973333 490.026667 640l0.64-0.597333 0.597333 0.597333L725.333333 405.973333 664.96 345.6 490.666667 519.936z"  horiz-adv-x="1024" />

    
    <glyph glyph-name="reverse-sorting" unicode="&#59756;" d="M490.666667 465.664L316.330667 640 256 579.669333l234.026667-234.026666 0.64 0.597333 0.597333-0.597333L725.333333 579.669333 664.96 640 490.666667 465.664z m0-256L316.330667 384 256 323.669333l234.026667-234.026666 0.64 0.597333 0.597333-0.597333L725.333333 323.669333 664.96 384 490.666667 209.664z"  horiz-adv-x="1024" />

    
    <glyph glyph-name="forward-sorting-o" unicode="&#59809;" d="M490.666667 340.906667l0.426666 0.426666 191.402667-191.36-30.165333-30.165333-161.664 161.664-161.706667-161.706667-30.122667 30.208L490.197333 341.333333l0.469334-0.426666z m0 256l0.426666 0.426666 191.402667-191.36-30.165333-30.165333L490.666667 537.472l-161.706667-161.706667-30.122667 30.208L490.197333 597.333333l0.469334-0.426666z"  horiz-adv-x="1024" />

    
    <glyph glyph-name="reverse-sorting-o" unicode="&#59841;" d="M490.666667 376.277333l0.426666-0.469333 191.402667 191.36L652.373333 597.333333 490.666667 435.626667 328.96 597.333333l-30.122667-30.165333 191.36-191.36 0.469334 0.426667z m0-256l0.426666-0.469333 191.402667 191.36L652.373333 341.333333 490.666667 179.626667 328.96 341.333333l-30.122667-30.165333 191.36-191.36 0.469334 0.426667z"  horiz-adv-x="1024" />

    


  </font>
</defs>
</svg>
